<svg width="2371" height="1512" viewBox="0 0 2371 1512" fill="none" xmlns="http://www.w3.org/2000/svg">
<g filter="url(#filter0_f_604_242)">
<ellipse cx="1185.34" cy="755.816" rx="753" ry="324" fill="#2B0449" fill-opacity="0.5"/>
</g>
<path d="M1893.34 785.316C1893.34 815.008 1873.65 843.488 1837.57 869.556C1801.51 895.607 1749.27 919.108 1684.63 938.863C1555.36 978.367 1376.71 1002.82 1179.34 1002.82C981.969 1002.82 803.322 978.367 674.051 938.863C609.409 919.108 557.17 895.607 521.114 869.556C485.034 843.488 465.34 815.008 465.34 785.316C465.34 755.624 485.034 727.144 521.114 701.077C557.17 675.026 609.409 651.524 674.051 631.77C803.322 592.265 981.969 567.816 1179.34 567.816C1376.71 567.816 1555.36 592.265 1684.63 631.77C1749.27 651.524 1801.51 675.026 1837.57 701.077C1873.65 727.144 1893.34 755.624 1893.34 785.316Z" stroke="#402A53" stroke-width="2"/>
<path d="M1855.98 1013.25C1846.51 1041.38 1818.75 1062.09 1776.24 1075.27C1733.75 1088.45 1676.74 1094.05 1609.18 1092.13C1474.06 1088.3 1296.95 1054.44 1109.91 991.436C922.866 928.429 761.371 848.23 651.474 769.526C596.521 730.17 554.518 691.221 528.664 655.023C502.794 618.802 493.222 585.525 502.7 557.387C512.179 529.248 539.934 508.546 582.447 495.36C624.934 482.182 681.942 476.586 749.507 478.501C884.626 482.33 1061.73 516.19 1248.77 579.196C1435.82 642.203 1597.31 722.402 1707.21 801.106C1762.16 840.462 1804.17 879.411 1830.02 915.609C1855.89 951.83 1865.46 985.107 1855.98 1013.25Z" stroke="#402A53" stroke-width="2"/>
<circle cx="1214.84" cy="568.316" r="4.5" fill="#402A53"/>
<circle cx="1145.84" cy="1002.32" r="4.5" fill="#402A53"/>
<circle cx="1807.84" cy="888.316" r="4.5" fill="#402A53"/>
<circle cx="550.84" cy="682.316" r="4.5" fill="#402A53"/>
<defs>
<filter id="filter0_f_604_242" x="0.639832" y="0.116028" width="2369.4" height="1511.4" filterUnits="userSpaceOnUse" color-interpolation-filters="sRGB">
<feFlood flood-opacity="0" result="BackgroundImageFix"/>
<feBlend mode="normal" in="SourceGraphic" in2="BackgroundImageFix" result="shape"/>
<feGaussianBlur stdDeviation="215.85" result="effect1_foregroundBlur_604_242"/>
</filter>
</defs>
</svg>
