<svg width="1496" height="871" viewBox="0 0 1496 871" fill="none" xmlns="http://www.w3.org/2000/svg">
<path d="M1462 435.5C1462 465.192 1442.31 493.672 1406.23 519.74C1370.17 545.79 1317.93 569.292 1253.29 589.046C1124.02 628.551 945.371 653 748 653C550.629 653 371.982 628.551 242.711 589.046C178.069 569.292 125.83 545.79 89.7739 519.74C53.6945 493.672 34 465.192 34 435.5C34 405.808 53.6945 377.328 89.7739 351.261C125.83 325.21 178.069 301.708 242.711 281.954C371.982 242.449 550.629 218 748 218C945.371 218 1124.02 242.449 1253.29 281.954C1317.93 301.708 1370.17 325.21 1406.23 351.261C1442.31 377.328 1462 405.808 1462 435.5Z" stroke="#402A53" stroke-width="2"/>
<path d="M1424.64 663.429C1415.16 691.568 1387.41 712.27 1344.89 725.456C1302.41 738.634 1245.4 744.23 1177.83 742.315C1042.72 738.486 865.612 704.626 678.568 641.62C491.524 578.613 330.029 498.414 220.133 419.71C165.179 380.354 123.176 341.405 97.3223 305.207C71.4522 268.986 61.8797 235.709 71.3583 207.571C80.8369 179.432 108.593 158.73 151.106 145.543C193.592 132.366 250.6 126.77 318.165 128.685C453.284 132.514 630.388 166.374 817.432 229.38C1004.48 292.387 1165.97 372.586 1275.87 451.29C1330.82 490.646 1372.82 529.595 1398.68 565.793C1424.55 602.014 1434.12 635.291 1424.64 663.429Z" stroke="#402A53" stroke-width="2"/>
<circle cx="783.5" cy="218.5" r="4.5" fill="#402A53"/>
<circle cx="714.5" cy="652.5" r="4.5" fill="#402A53"/>
<circle cx="1376.5" cy="538.5" r="4.5" fill="#402A53"/>
<circle cx="119.5" cy="332.5" r="4.5" fill="#402A53"/>
</svg>
