<svg width="64" height="56" fill="none" xmlns="http://www.w3.org/2000/svg"><g clip-path="url(#a)" fill="#fff"><path d="M16.627 26.743.001 56h30.063v-9.448h-4.403v4.42H8.352l12.45-21.03-4.175-3.2Zm17.082 9.067V56H64l-8.427-14.628H42.288v4.533h11.235l2.961 5.295h-18.22V38.02l7.82-4.8 2.77 4.647h4.973l-5.997-10.82-14.121 8.763Zm-1.48-26.371 7.458 13.135-7.652 5.255-7.3-5.193L32.23 9.439Zm0-9.439L18.602 24l13.386 9.524L45.856 24 32.229 0Z"/><path d="m27.71 21.556 4.438 3.156 4.597-3.156-4.517-7.956-4.517 7.956Z"/></g><defs><clipPath id="a"><path fill="#fff" d="M0 0h64v56H0z"/></clipPath></defs></svg>