<svg width="346" height="155" fill="none" xmlns="http://www.w3.org/2000/svg"><path d="M343.428 46.916a6.653 6.653 0 0 1-5.613 5.968c-10.636 1.595-13.236 3.368-15.776 8.036-1.537 2.836-2.541 6.086-2.955 9.631l-.768 6.263v.355c-1.241 7.327-5.318 14.122-11.345 19.263a33.027 33.027 0 0 1-9.336 5.613h1.714c3.013 0 5.85 1.3 7.74 3.486 1.891 2.186 2.659 5.2 2.187 8.213l-2.187 12.822c-.945 5.495-5.908 9.691-11.522 9.691h-95.958c-1.123 0-2.127.059-3.014.059-1.418.059-2.6.059-3.663.059H191.1c-.827 0-1.832 0-2.895-.118h-13.531c-.355.591-.65 1.418-1.064 2.481-.413 1.123-1.536 1.891-2.718 1.891a2.867 2.867 0 0 1-2.836-2.541c-.118-.768-.177-1.359-.296-1.89h-4.904a1.838 1.838 0 0 1-.354.768c-3.841 5.849-3.9 7.504-.473 13.59.532.886.473 2.009 0 2.895-.532.887-1.477 1.418-2.541 1.418a2.972 2.972 0 0 1-1.595-.472c-3.309-2.128-5.141-2.955-6.914-2.955-1.654 0-3.486.709-6.676 2.482-.414.236-.946.354-1.419.354-1.063 0-2.068-.59-2.54-1.536a2.802 2.802 0 0 1 .118-2.954c3.841-5.85 3.9-7.504.473-13.59v-.06h-7.623c-.472.06-.886.119-1.359.119H80.488c-.532 0-1.005-.059-1.477-.119H34.93c-.532.06-1.004.119-1.536.119h-16.9c-2.717 0-5.2-1.123-6.854-3.132a8.93 8.93 0 0 1-1.89-7.268v-.118l11.345-56.488H8.873c-2.718 0-5.2-1.123-6.854-3.132C.424 64.23-.226 61.747.07 59.265l.887-14.654v-.354l.059-.355c.886-4.727 5.14-8.272 9.926-8.272h59.502c-.591-7.031-2.127-8.686-9.336-11.877-1.477-.65-2.364-2.245-2.068-3.84a3.522 3.522 0 0 1 3.25-2.896c8.45-.531 10.104-1.713 13.53-9.454.592-1.3 1.832-2.127 3.25-2.127 1.832 0 3.428 1.477 3.546 3.31.532 8.508 1.714 10.103 9.454 13.53 1.477.65 2.364 2.246 2.068 3.841a3.522 3.522 0 0 1-3.25 2.895c-7.268.473-9.513 1.36-12.172 6.56h209.466c3.309 0 6.382-.355 9.277-1.065 6.736-1.654 9.1-3.663 12.881-14.653.946-2.66 3.427-4.491 6.264-4.491 3.309 0 6.086 2.364 6.558 5.672 1.891 12.704 3.664 14.832 15.836 19.027 2.895 1.004 4.727 3.781 4.431 6.854Z" fill="#fff"/><path d="M89.823 12.231c.178-1.477 1.3-2.659 2.836-2.836 4.314-.532 4.786-.945 6.323-5.022.472-1.3 1.713-2.127 3.072-2.127 1.655 0 3.014 1.24 3.25 2.836.532 4.313.946 4.786 5.023 6.263 1.418.532 2.304 1.89 2.127 3.427-.177 1.477-1.3 2.66-2.836 2.836-4.314.532-4.786.946-6.264 5.023-.472 1.3-1.713 2.127-3.072 2.127-1.655 0-3.014-1.24-3.25-2.836-.532-4.314-.945-4.786-5.022-6.264-1.478-.531-2.364-1.95-2.187-3.427Z" fill="#fff"/><path d="M344.551 45.91a6.654 6.654 0 0 1-5.613 5.968c-10.636 1.596-13.236 3.368-15.777 8.036-1.536 2.837-2.541 6.086-2.954 9.632l-.768 6.263v.354c-1.241 7.327-5.318 14.123-11.345 19.263a33.013 33.013 0 0 1-9.336 5.613h1.714c3.013 0 5.849 1.3 7.74 3.487 1.891 2.186 2.659 5.199 2.186 8.213l-2.186 12.822c-.945 5.495-5.909 9.69-11.522 9.69h-95.9c-1.122 0-2.127.059-3.013.059-1.418.059-2.6.059-3.664.059h-1.831c-.827 0-1.832 0-2.896-.118h-13.472c-.354.591-.65 1.418-1.063 2.482-.414 1.123-1.536 1.891-2.718 1.891a2.868 2.868 0 0 1-2.836-2.541c-.119-.768-.178-1.359-.296-1.891h-4.963a1.816 1.816 0 0 1-.355.768c-3.84 5.85-3.9 7.505-.472 13.591.531.886.472 2.009 0 2.895-.532.886-1.478 1.418-2.541 1.418a2.97 2.97 0 0 1-1.596-.473c-3.308-2.127-5.14-2.954-6.913-2.954-1.654 0-3.486.709-6.677 2.482-.413.236-.945.354-1.418.354-1.063 0-2.068-.591-2.541-1.536a2.806 2.806 0 0 1 .119-2.955c3.84-5.849 3.899-7.504.472-13.59v-.059h-7.622c-.473.059-.886.118-1.359.118H81.669c-.531 0-1.004-.059-1.477-.118H36.054c-.532.059-1.005.118-1.537.118H17.618c-2.718 0-5.2-1.122-6.854-3.131a8.93 8.93 0 0 1-1.89-7.268v-.118l11.344-56.488H9.996c-2.718 0-5.2-1.123-6.854-3.132-1.596-1.89-2.246-4.372-1.95-6.854l.886-14.595v-.354l.06-.355c.886-4.727 5.14-8.272 9.926-8.272h59.501c-.59-7.032-2.127-8.686-9.335-11.877-1.478-.65-2.364-2.245-2.069-3.84a3.523 3.523 0 0 1 3.25-2.896c8.45-.532 10.104-1.713 13.531-9.454.591-1.3 1.832-2.127 3.25-2.127 1.832 0 3.427 1.477 3.546 3.309.531 8.509 1.713 10.104 9.454 13.531 1.477.65 2.363 2.245 2.068 3.84a3.522 3.522 0 0 1-3.25 2.896c-7.268.473-9.513 1.359-12.172 6.559h209.466c3.309 0 6.381-.355 9.277-1.064 6.736-1.654 9.099-3.663 12.881-14.654.945-2.659 3.427-4.49 6.263-4.49 3.309 0 6.086 2.363 6.559 5.672 1.891 12.704 3.663 14.831 15.835 19.026 2.896.887 4.727 3.723 4.432 6.795Z" fill="#C9A544"/><path d="M90.945 11.227c.178-1.478 1.3-2.66 2.837-2.837 4.313-.531 4.786-.945 6.322-5.022.473-1.3 1.713-2.127 3.072-2.127 1.655 0 3.014 1.24 3.25 2.836.532 4.313.946 4.786 5.023 6.263 1.418.532 2.304 1.891 2.127 3.427-.177 1.478-1.3 2.66-2.836 2.837-4.314.531-4.786.945-6.264 5.022-.472 1.3-1.713 2.127-3.072 2.127-1.655 0-3.014-1.24-3.25-2.836-.532-4.313-.945-4.786-5.022-6.263-1.478-.532-2.364-1.95-2.187-3.427Z" fill="#C9A544"/><path d="M53.308 133.834c.473.059 1.005.118 1.477.118h11.522c.532 0 1.005-.059 1.537-.118H53.308Z" fill="#fff"/><path d="M345.969 44.611a6.655 6.655 0 0 1-5.614 5.968c-10.636 1.595-13.235 3.368-15.776 8.036-1.537 2.836-2.541 6.086-2.955 9.631l-.768 6.263v.355c-1.241 7.327-5.318 14.122-11.345 19.262a33.033 33.033 0 0 1-9.335 5.614h1.713c3.013 0 5.85 1.3 7.741 3.486 1.89 2.186 2.658 5.2 2.186 8.213l-2.186 12.822c-.946 5.495-5.909 9.691-11.523 9.691h-95.899c-1.123 0-2.127.059-3.014.059-1.418.059-2.599.059-3.663.059h-1.832c-.827 0-1.831 0-2.895-.118h-13.472c-.355.591-.65 1.418-1.064 2.481-.413 1.123-1.536 1.891-2.718 1.891a2.867 2.867 0 0 1-2.836-2.541c-.118-.768-.177-1.359-.295-1.89h-4.846a1.838 1.838 0 0 1-.354.768c-3.841 5.849-3.9 7.504-.473 13.59.532.886.473 2.009 0 2.895-.532.887-1.477 1.418-2.541 1.418-.59 0-1.122-.177-1.595-.472-3.309-2.127-5.141-2.955-6.913-2.955-1.655 0-3.486.709-6.677 2.482-.414.236-.946.355-1.418.355-1.064 0-2.068-.591-2.541-1.537a2.802 2.802 0 0 1 .118-2.954c3.841-5.85 3.9-7.504.473-13.59v-.059h-7.622c-.473.059-.887.118-1.359.118H83.205c-.532 0-1.004-.059-1.477-.118H37.412c-.532.059-1.005.118-1.536.118h-16.84c-2.718 0-5.2-1.123-6.855-3.132a8.93 8.93 0 0 1-1.89-7.268v-.118l11.345-56.488H11.413c-2.718 0-5.2-1.123-6.854-3.131-1.595-1.891-2.245-4.373-1.95-6.855l.887-14.594v-.355l.059-.354c.886-4.727 5.14-8.273 9.926-8.273h59.502c-.591-7.031-2.127-8.686-9.336-11.876-1.477-.65-2.364-2.246-2.068-3.841a3.523 3.523 0 0 1 3.25-2.895c8.45-.532 10.104-1.714 13.53-9.454.592-1.3 1.833-2.128 3.25-2.128 1.832 0 3.428 1.478 3.546 3.31.532 8.508 1.713 10.103 9.454 13.53 1.477.65 2.364 2.246 2.068 3.841a3.523 3.523 0 0 1-3.25 2.896c-7.268.472-9.513 1.358-12.172 6.558h209.466c3.309 0 6.382-.354 9.277-1.063 6.736-1.655 9.1-3.664 12.881-14.654.946-2.66 3.427-4.49 6.264-4.49 3.309 0 6.086 2.363 6.558 5.672 1.891 12.704 3.664 14.83 15.836 19.026a6.484 6.484 0 0 1 4.432 6.795Z" fill="#fff"/><path d="M92.364 9.986c.177-1.477 1.3-2.66 2.836-2.836 4.313-.532 4.786-.946 6.322-5.023.473-1.3 1.714-2.127 3.073-2.127 1.654 0 3.013 1.24 3.25 2.836.532 4.314.945 4.786 5.022 6.264 1.418.531 2.305 1.89 2.127 3.427-.177 1.477-1.3 2.659-2.836 2.836-4.313.532-4.786.945-6.263 5.022-.473 1.3-1.714 2.127-3.073 2.127-1.654 0-3.013-1.24-3.25-2.836-.531-4.313-.945-4.786-5.022-6.263-1.477-.532-2.364-1.95-2.186-3.427Zm82.841 110.907c.591 4.787 1.655 6.087 6.204 7.741.178.059.178.354-.059.414-4.786.59-6.086 1.654-7.74 6.204-.059.177-.355.177-.414-.059-.591-4.786-1.654-6.086-6.204-7.741-.177-.059-.177-.354.059-.413 4.786-.591 6.086-1.655 7.741-6.205.059-.177.354-.177.413.059Z" fill="#fff"/><path d="M175.205 120.893c.591 4.787 1.655 6.087 6.204 7.741.178.059.178.354-.059.414-4.786.59-6.086 1.654-7.74 6.204-.059.177-.355.177-.414-.059-.591-4.786-1.654-6.086-6.204-7.741-.177-.059-.177-.354.059-.413 4.786-.591 6.086-1.655 7.741-6.205.059-.177.354-.177.413.059Z" fill="url(#a)"/><g opacity=".5"><path d="M175.205 120.893c.591 4.787 1.655 6.087 6.204 7.741.178.059.178.354-.059.414-4.786.59-6.086 1.654-7.74 6.204-.059.177-.355.177-.414-.059-.591-4.786-1.654-6.086-6.204-7.741-.177-.059-.177-.354.059-.413 4.786-.591 6.086-1.655 7.741-6.205.059-.177.354-.177.413.059Z" fill="#fff"/><path d="M175.205 120.893c.591 4.787 1.655 6.087 6.204 7.741.178.059.178.354-.059.414-4.786.59-6.086 1.654-7.74 6.204-.059.177-.355.177-.414-.059-.591-4.786-1.654-6.086-6.204-7.741-.177-.059-.177-.354.059-.413 4.786-.591 6.086-1.655 7.741-6.205.059-.177.354-.177.413.059Z" fill="url(#b)"/></g><path d="M104.654 3.132c.709 5.436 1.832 6.854 6.972 8.745.237.059.177.413-.059.472-5.436.71-6.854 1.832-8.745 6.973-.059.236-.414.177-.473-.06-.709-5.435-1.831-6.854-6.972-8.744-.236-.06-.177-.414.06-.473 5.435-.71 6.853-1.832 8.744-6.972.118-.237.473-.178.473.059Z" fill="#fff"/><path d="M104.654 3.132c.709 5.436 1.832 6.854 6.972 8.745.237.059.177.413-.059.472-5.436.71-6.854 1.832-8.745 6.973-.059.236-.414.177-.473-.06-.709-5.435-1.831-6.854-6.972-8.744-.236-.06-.177-.414.06-.473 5.435-.71 6.853-1.832 8.744-6.972.118-.237.473-.178.473.059Z" fill="url(#c)"/><g opacity=".5"><path d="M104.653 3.132c.709 5.436 1.832 6.854 6.973 8.745.236.059.177.413-.059.472-5.436.71-6.855 1.832-8.745 6.973-.059.236-.414.177-.473-.06-.709-5.435-1.832-6.854-6.973-8.744-.236-.06-.177-.414.06-.473 5.436-.71 6.854-1.832 8.745-6.972.118-.237.472-.178.472.059Z" fill="#fff"/><path d="M104.653 3.132c.709 5.436 1.832 6.854 6.973 8.745.236.059.177.413-.059.472-5.436.71-6.855 1.832-8.745 6.973-.059.236-.414.177-.473-.06-.709-5.435-1.832-6.854-6.973-8.744-.236-.06-.177-.414.06-.473 5.436-.71 6.854-1.832 8.745-6.972.118-.237.472-.178.472.059Z" fill="url(#d)"/></g><path d="M339.469 44.434c-11.227 1.655-16.249 3.959-20.149 11.05-2.009 3.663-3.191 7.681-3.663 11.758l-.768 6.263c-2.128 12.232-13.945 22.158-26.354 22.158h-38.348c-1.595 0-3.072 1.241-3.368 2.837l-.709 4.017c-.295 1.537.828 2.837 2.364 2.837h53.356c2.659 0 4.432 2.127 4.018 4.727l-2.186 12.822c-.473 2.6-2.955 4.727-5.613 4.727h-58.143c-12.467 0-20.858-9.927-18.731-22.158l1.359-7.977c2.127-12.231 13.945-22.158 26.353-22.158h38.348c1.596 0 3.073-1.24 3.368-2.836l.946-8.982c.295-1.536-.827-2.836-2.364-2.836H52.657a.828.828 0 0 0-.827.71L39.953 124.32c-.355 1.891-2.186 3.368-4.077 3.368h-16.84c-1.89 0-3.19-1.536-2.836-3.368l12.645-62.929c.059-.354-.178-.709-.591-.709h-16.84c-1.891 0-3.191-1.536-2.837-3.368l.887-14.89c.354-1.89 2.127-3.368 4.077-3.368h277.181c3.604 0 7.208-.354 10.754-1.24 9.631-2.364 13.058-6.619 17.135-18.495.236-.65 1.123-.532 1.241.118 2.245 14.95 5.495 18.908 19.794 23.812.591.178.473 1.064-.177 1.182Z" fill="url(#e)"/><path d="M77.416 66.65c1.89 0 3.19 1.537 2.836 3.369l-9.808 54.302c-.355 1.89-2.187 3.368-4.078 3.368H54.844c-1.89 0-3.19-1.537-2.836-3.368l9.809-54.302c.354-1.89 2.186-3.368 4.077-3.368h11.522Z" fill="url(#f)"/><path d="m80.074 124.32 9.809-54.42c.354-1.89 2.186-3.427 4.077-3.427h51.465c1.123 0 1.891.946 1.714 2.01l-2.068 11.521c-.178 1.123-1.3 2.069-2.423 2.069h-35.807c-.355 0-.768.295-.827.709l-1.123 6.322c-.059.355.177.71.591.71h28.776c1.122 0 1.89.885 1.713 2.008L134.08 102.4c-.177 1.122-1.3 2.009-2.422 2.009h-28.776c-.355 0-.768.295-.827.709l-1.064 5.909c-.059.354.177.709.591.709h35.807c1.123 0 1.891.886 1.714 2.009l-2.127 11.935c-.178 1.123-1.3 2.009-2.423 2.009H83.088c-2.069.059-3.31-1.477-3.014-3.368Z" fill="url(#g)"/><path d="M147.965 127.748c-1.891 0-3.191-1.537-2.836-3.368l9.808-54.361c.355-1.89 2.186-3.368 4.077-3.368h43.548c8.981 0 14.949 7.15 13.354 15.954l-2.482 13.885c-1.122 6.027-5.495 11.286-11.049 13.945-.414.177-.591.65-.414.945l7.209 12.527c.945 1.714-.236 3.722-2.186 3.722-6.027 0-9.75.178-12.172.178-4.196.059-5.555-.118-6.323-1.655l-6.559-12.822a1.761 1.761 0 0 0-1.536-.886h-13.945c-.354 0-.768.295-.827.709l-2.009 11.286c-.354 1.891-2.186 3.368-4.077 3.368l-11.581-.059Zm20.681-31.376c-.059.355.177.71.59.71h22.572c1.714 0 3.309-1.36 3.604-3.014l1.655-9.159c.295-1.655-.827-3.014-2.541-3.014h-22.571c-.355 0-.769.296-.828.71l-2.481 13.767Z" fill="url(#h)"/><path d="M93.13 23.694c-9.63.591-12.29 2.482-16.19 11.345-.177.414-.767.296-.767-.118-.591-9.631-2.482-12.29-11.345-16.19-.414-.177-.296-.768.118-.768 9.631-.591 12.29-2.482 16.19-11.345.177-.414.768-.295.768.118.59 9.632 2.482 12.29 11.345 16.19.473.118.354.71-.118.768Z" fill="#fff"/><path d="M93.13 23.694c-9.63.591-12.29 2.482-16.19 11.345-.177.414-.767.296-.767-.118-.591-9.631-2.482-12.29-11.345-16.19-.414-.177-.296-.768.118-.768 9.631-.591 12.29-2.482 16.19-11.345.177-.414.768-.295.768.118.59 9.632 2.482 12.29 11.345 16.19.473.118.354.71-.118.768Z" fill="url(#i)"/><g opacity=".5"><path d="M93.13 23.694c-9.631.591-12.29 2.482-16.19 11.345-.177.414-.768.296-.768-.118-.59-9.631-2.482-12.29-11.345-16.19-.413-.177-.295-.768.118-.768 9.632-.591 12.29-2.482 16.19-11.345.178-.414.769-.295.769.118.59 9.632 2.481 12.29 11.344 16.19.473.118.355.71-.118.768Z" fill="#fff"/><path d="M93.13 23.694c-9.631.591-12.29 2.482-16.19 11.345-.177.414-.768.296-.768-.118-.59-9.631-2.482-12.29-11.345-16.19-.413-.177-.295-.768.118-.768 9.632-.591 12.29-2.482 16.19-11.345.178-.414.769-.295.769.118.59 9.632 2.481 12.29 11.344 16.19.473.118.355.71-.118.768Z" fill="url(#j)"/></g><path d="M162.915 133.066c-4.372 6.677-4.431 9.336-.531 16.249.177.296-.178.65-.473.473-6.677-4.373-9.336-4.432-16.249-.532-.296.177-.65-.177-.473-.473 4.373-6.677 4.432-9.336.532-16.249-.177-.295.177-.65.473-.473 6.677 4.373 9.335 4.432 16.249.532.295-.177.65.177.472.473Z" fill="#fff"/><path d="M162.915 133.066c-4.372 6.677-4.431 9.336-.531 16.249.177.296-.178.65-.473.473-6.677-4.373-9.336-4.432-16.249-.532-.296.177-.65-.177-.473-.473 4.373-6.677 4.432-9.336.532-16.249-.177-.295.177-.65.473-.473 6.677 4.373 9.335 4.432 16.249.532.295-.177.65.177.472.473Z" fill="url(#k)"/><g opacity=".5"><path d="M162.915 133.066c-4.372 6.677-4.431 9.336-.531 16.249.177.296-.178.65-.473.473-6.677-4.373-9.336-4.432-16.249-.532-.296.177-.65-.177-.473-.473 4.373-6.677 4.432-9.336.532-16.249-.177-.295.177-.65.473-.473 6.677 4.373 9.335 4.432 16.249.532.295-.177.65.177.472.473Z" fill="#fff"/><path d="M162.915 133.066c-4.372 6.677-4.431 9.336-.531 16.249.177.296-.178.65-.473.473-6.677-4.373-9.336-4.432-16.249-.532-.296.177-.65-.177-.473-.473 4.373-6.677 4.432-9.336.532-16.249-.177-.295.177-.65.473-.473 6.677 4.373 9.335 4.432 16.249.532.295-.177.65.177.472.473Z" fill="url(#l)"/></g><defs><linearGradient id="a" x1="174.205" y1="120.691" x2="174.205" y2="135.359" gradientUnits="userSpaceOnUse"><stop stop-color="#CFAB48"/><stop offset=".186" stop-color="#CBA745"/><stop offset=".378" stop-color="#BE9B3D"/><stop offset=".573" stop-color="#AA8830"/><stop offset=".77" stop-color="#8D6C1D"/><stop offset=".967" stop-color="#684A05"/><stop offset="1" stop-color="#614300"/></linearGradient><linearGradient id="b" x1="174.205" y1="120.691" x2="174.205" y2="135.359" gradientUnits="userSpaceOnUse"><stop stop-color="#CFAB48"/><stop offset=".186" stop-color="#CBA745"/><stop offset=".378" stop-color="#BE9B3D"/><stop offset=".573" stop-color="#AA8830"/><stop offset=".77" stop-color="#8D6C1D"/><stop offset=".967" stop-color="#684A05"/><stop offset="1" stop-color="#614300"/></linearGradient><linearGradient id="c" x1="103.506" y1="2.903" x2="103.506" y2="19.45" gradientUnits="userSpaceOnUse"><stop stop-color="#CFAB48"/><stop offset=".186" stop-color="#CBA745"/><stop offset=".378" stop-color="#BE9B3D"/><stop offset=".573" stop-color="#AA8830"/><stop offset=".77" stop-color="#8D6C1D"/><stop offset=".967" stop-color="#684A05"/><stop offset="1" stop-color="#614300"/></linearGradient><linearGradient id="d" x1="103.506" y1="2.903" x2="103.506" y2="19.45" gradientUnits="userSpaceOnUse"><stop stop-color="#CFAB48"/><stop offset=".186" stop-color="#CBA745"/><stop offset=".378" stop-color="#BE9B3D"/><stop offset=".573" stop-color="#AA8830"/><stop offset=".77" stop-color="#8D6C1D"/><stop offset=".967" stop-color="#684A05"/><stop offset="1" stop-color="#614300"/></linearGradient><linearGradient id="e" x1="174.263" y1="18.839" x2="174.263" y2="127.734" gradientUnits="userSpaceOnUse"><stop stop-color="#CFAB48"/><stop offset=".186" stop-color="#CBA745"/><stop offset=".378" stop-color="#BE9B3D"/><stop offset=".573" stop-color="#AA8830"/><stop offset=".77" stop-color="#8D6C1D"/><stop offset=".967" stop-color="#684A05"/><stop offset="1" stop-color="#614300"/></linearGradient><linearGradient id="f" x1="66.108" y1="66.635" x2="66.108" y2="127.734" gradientUnits="userSpaceOnUse"><stop stop-color="#CFAB48"/><stop offset=".186" stop-color="#CBA745"/><stop offset=".378" stop-color="#BE9B3D"/><stop offset=".573" stop-color="#AA8830"/><stop offset=".77" stop-color="#8D6C1D"/><stop offset=".967" stop-color="#684A05"/><stop offset="1" stop-color="#614300"/></linearGradient><linearGradient id="g" x1="113.628" y1="66.52" x2="113.628" y2="127.733" gradientUnits="userSpaceOnUse"><stop stop-color="#CFAB48"/><stop offset=".186" stop-color="#CBA745"/><stop offset=".378" stop-color="#BE9B3D"/><stop offset=".573" stop-color="#AA8830"/><stop offset=".77" stop-color="#8D6C1D"/><stop offset=".967" stop-color="#684A05"/><stop offset="1" stop-color="#614300"/></linearGradient><linearGradient id="h" x1="180.642" y1="66.58" x2="180.642" y2="127.735" gradientUnits="userSpaceOnUse"><stop stop-color="#CFAB48"/><stop offset=".186" stop-color="#CBA745"/><stop offset=".378" stop-color="#BE9B3D"/><stop offset=".573" stop-color="#AA8830"/><stop offset=".77" stop-color="#8D6C1D"/><stop offset=".967" stop-color="#684A05"/><stop offset="1" stop-color="#614300"/></linearGradient><linearGradient id="i" x1="79.068" y1="6.327" x2="79.068" y2="35.258" gradientUnits="userSpaceOnUse"><stop stop-color="#CFAB48"/><stop offset=".186" stop-color="#CBA745"/><stop offset=".378" stop-color="#BE9B3D"/><stop offset=".573" stop-color="#AA8830"/><stop offset=".77" stop-color="#8D6C1D"/><stop offset=".967" stop-color="#684A05"/><stop offset="1" stop-color="#614300"/></linearGradient><linearGradient id="j" x1="79.067" y1="6.327" x2="79.067" y2="35.258" gradientUnits="userSpaceOnUse"><stop stop-color="#CFAB48"/><stop offset=".186" stop-color="#CBA745"/><stop offset=".378" stop-color="#BE9B3D"/><stop offset=".573" stop-color="#AA8830"/><stop offset=".77" stop-color="#8D6C1D"/><stop offset=".967" stop-color="#684A05"/><stop offset="1" stop-color="#614300"/></linearGradient><linearGradient id="k" x1="154.057" y1="131.993" x2="154.057" y2="149.812" gradientUnits="userSpaceOnUse"><stop stop-color="#CFAB48"/><stop offset=".186" stop-color="#CBA745"/><stop offset=".378" stop-color="#BE9B3D"/><stop offset=".573" stop-color="#AA8830"/><stop offset=".77" stop-color="#8D6C1D"/><stop offset=".967" stop-color="#684A05"/><stop offset="1" stop-color="#614300"/></linearGradient><linearGradient id="l" x1="154.057" y1="131.993" x2="154.057" y2="149.812" gradientUnits="userSpaceOnUse"><stop stop-color="#CFAB48"/><stop offset=".186" stop-color="#CBA745"/><stop offset=".378" stop-color="#BE9B3D"/><stop offset=".573" stop-color="#AA8830"/><stop offset=".77" stop-color="#8D6C1D"/><stop offset=".967" stop-color="#684A05"/><stop offset="1" stop-color="#614300"/></linearGradient></defs></svg>