<svg width="312" height="151" fill="none" xmlns="http://www.w3.org/2000/svg"><path d="m307.951 82.628-1.51 8.69c-.701 3.94-2.319 7.825-4.907 11.603 1.24 3.832 1.51 7.772.755 11.766l-1.564 8.689c-1.294 7.178-5.338 13.924-11.324 18.944-5.985 5.019-13.318 7.771-20.652 7.771h-56.726c-2.373 0-4.637-.809-6.309-2.32-1.402 1.403-3.343 2.158-5.392 2.158-2.966 0-5.339.054-7.226.108-1.294.054-2.426.054-3.343.054h-1.726c-2.534 0-7.225 0-9.544-4.479l-4.907-9.607h-6.471l-1.186 6.476c-.809 4.318-4.691 7.61-9.113 7.61h-10.568c-2.481 0-4.746-1.025-6.255-2.86-.054-.054-.054-.054-.054-.108-1.456 1.781-3.667 2.968-6.094 2.968H86.707c-2.48 0-4.745-1.025-6.255-2.86a6.345 6.345 0 0 1-1.024-1.619c-1.672 2.698-4.638 4.479-7.873 4.479H60.986c-2.48 0-4.745-1.025-6.255-2.86-1.51-1.835-2.157-4.264-1.725-6.693l5.823-32.328a8.36 8.36 0 0 1-1.671.162H45.672l-6.147 34.109c-.809 4.318-4.691 7.61-9.113 7.61H19.843c-2.48 0-4.745-1.025-6.255-2.86-1.51-1.835-2.156-4.264-1.725-6.693l5.823-32.166H8.142c-2.48 0-4.745-1.025-6.255-2.86-1.51-1.835-2.157-4.264-1.725-6.692l1.456-8.042c.7-3.886 3.936-6.908 7.764-7.502l-6.955-6.962A8.292 8.292 0 0 1 0 70.43c0-2.213.863-4.317 2.427-5.883L15.69 51.272c1.564-1.565 3.667-2.483 5.878-2.483a8.374 8.374 0 0 1 7.765 5.235h73.172c.108-3.022 2.211-5.613 5.177-6.368 14.829-3.616 22.647-7.016 27.77-12.197 5.123-5.128 8.52-12.9 12.187-27.795.754-3.023 3.451-5.181 6.578-5.181 3.128 0 5.824 2.105 6.579 5.18 3.612 14.843 7.009 22.668 12.186 27.796 5.123 5.127 12.887 8.527 27.77 12.197 2.966.701 5.069 3.292 5.177 6.368H283.9c7.657 0 14.452 3.023 19.035 8.474 4.529 5.45 6.309 12.629 5.015 20.13Z" fill="#fff"/><path d="m309.461 81.44-1.51 8.69c-.701 3.94-2.319 7.826-4.907 11.604 1.24 3.832 1.51 7.771.755 11.765l-1.564 8.689c-1.294 7.179-5.338 13.925-11.324 18.944-5.985 5.019-13.318 7.772-20.652 7.772h-56.726c-2.373 0-4.638-.81-6.309-2.321-1.402 1.403-3.343 2.159-5.392 2.159-2.966 0-5.339.054-7.226.108-1.294.054-2.426.054-3.343.054h-1.726c-2.534 0-7.225 0-9.544-4.48l-4.907-9.606h-6.471l-1.186 6.476c-.809 4.318-4.691 7.61-9.113 7.61h-10.569c-2.48 0-4.745-1.026-6.254-2.861-.054-.054-.054-.054-.054-.108-1.456 1.781-3.667 2.969-6.094 2.969H88.217c-2.48 0-4.745-1.026-6.255-2.861a6.311 6.311 0 0 1-1.024-1.619c-1.672 2.699-4.638 4.48-7.873 4.48H62.496c-2.48 0-4.745-1.026-6.255-2.861-1.51-1.835-2.157-4.263-1.725-6.692l5.823-32.328a8.36 8.36 0 0 1-1.671.162h-11.54l-6.147 34.109c-.809 4.318-4.691 7.61-9.113 7.61H21.3c-2.48 0-4.745-1.026-6.255-2.861-1.51-1.835-2.156-4.263-1.725-6.692l5.824-32.166H9.598c-2.48 0-4.745-1.026-6.255-2.861-1.51-1.835-2.157-4.263-1.725-6.692l1.456-8.042c.7-3.885 3.936-6.908 7.765-7.501l-6.956-6.963a8.292 8.292 0 0 1-2.427-5.882c0-2.213.863-4.318 2.427-5.883l13.265-13.277c1.563-1.565 3.666-2.482 5.877-2.482a8.374 8.374 0 0 1 7.765 5.235h73.173c.107-3.023 2.21-5.613 5.176-6.369 14.829-3.616 22.647-7.016 27.77-12.197 5.123-5.127 8.52-12.899 12.187-27.795.754-3.022 3.451-5.18 6.578-5.18 3.128 0 5.824 2.104 6.579 5.18 3.612 14.842 7.01 22.668 12.186 27.795 5.123 5.127 12.888 8.527 27.77 12.197 2.966.702 5.069 3.292 5.177 6.369h77.971c7.657 0 14.452 3.022 19.035 8.473 4.53 5.451 6.363 12.575 5.069 20.13Z" fill="url(#a)"/><path d="M279.534 78.689H88.433v52.405h191.101V78.689Z" fill="#fff"/><path d="M23.025 144.856c-1.672 0-3.181-.701-4.152-1.889-1.025-1.187-1.402-2.806-1.133-4.425l6.363-35.459h-12.78c-1.67 0-3.18-.701-4.151-1.889-1.025-1.187-1.402-2.806-1.133-4.425l1.456-8.042c.54-3.022 3.343-5.343 6.417-5.343h49.016c1.617 0 3.18.702 4.151 1.889 1.025 1.187 1.403 2.806 1.133 4.426l-1.456 8.041c-.54 3.022-3.343 5.343-6.417 5.343H46.535l-6.578 36.376c-.54 3.022-3.344 5.343-6.417 5.343H23.025v.054Z" fill="url(#b)"/><path d="M62.928 86.083c1.725 0 2.911 1.403 2.588 3.13l-1.456 8.041c-.324 1.727-1.995 3.131-3.72 3.131H44.916c-.323 0-.7.27-.755.647l-6.848 37.995c-.323 1.727-1.995 3.131-3.72 3.131H23.025c-1.726 0-2.912-1.404-2.588-3.131l6.848-38.049c.054-.323-.162-.647-.54-.647h-15.42c-1.726 0-2.912-1.404-2.588-3.13l1.455-8.042c.324-1.727 1.995-3.13 3.721-3.13h49.016m0-5.397H13.912c-4.422 0-8.304 3.292-9.113 7.61l-1.456 8.041c-.431 2.429.162 4.857 1.726 6.692 1.51 1.835 3.828 2.861 6.255 2.861h9.544l-5.824 32.166c-.43 2.429.162 4.857 1.726 6.692 1.51 1.835 3.828 2.861 6.255 2.861h10.569c4.421 0 8.304-3.293 9.113-7.61l6.147-34.109h11.485c4.422 0 8.304-3.292 9.113-7.61l1.456-8.042c.431-2.428-.216-4.857-1.725-6.692-1.51-1.835-3.829-2.86-6.256-2.86Z" fill="#fff"/><path d="M64.114 144.856c-1.672 0-3.182-.702-4.152-1.889-1.025-1.187-1.402-2.806-1.133-4.425l9.005-49.761c.54-3.022 3.344-5.343 6.417-5.343H84.82c1.672 0 3.181.702 4.152 1.889.97 1.187 1.402 2.806 1.132 4.425L81.1 139.513c-.539 3.022-3.343 5.343-6.416 5.343h-10.57Z" fill="url(#c)"/><path d="M84.82 86.083c1.726 0 2.912 1.403 2.588 3.13l-9.005 49.76c-.323 1.727-1.995 3.131-3.72 3.131h-10.57c-1.725 0-2.911-1.404-2.587-3.131l9.005-49.76c.323-1.727 1.995-3.13 3.72-3.13H84.82Zm0-5.451H74.251c-4.421 0-8.304 3.292-9.113 7.61l-9.005 49.76c-.431 2.429.162 4.857 1.726 6.692 1.51 1.835 3.828 2.861 6.255 2.861h10.569c4.421 0 8.304-3.293 9.112-7.61L92.8 90.13c.432-2.428-.161-4.857-1.725-6.692-1.51-1.781-3.775-2.806-6.255-2.806Z" fill="#fff"/><path d="M89.889 144.856c-1.672 0-3.182-.701-4.152-1.889-1.025-1.187-1.402-2.806-1.133-4.425l9.005-49.869c.54-3.022 3.344-5.343 6.417-5.343h47.128c1.294 0 2.535.54 3.343 1.511.809.972 1.133 2.267.917 3.562l-1.887 10.578a5.021 5.021 0 0 1-4.907 4.102h-31.113l-.27 1.565h23.726c1.294 0 2.534.54 3.343 1.511.809.972 1.132 2.267.917 3.563l-1.78 9.714c-.431 2.321-2.534 4.102-4.907 4.102H109.84l-.216 1.187h30.143c1.294 0 2.534.54 3.343 1.511.809.972 1.132 2.267.917 3.562l-1.941 10.956c-.432 2.375-2.535 4.102-4.907 4.102h-47.29Z" fill="url(#d)"/><path d="M147.154 85.975c1.025 0 1.726.863 1.564 1.889l-1.887 10.578c-.162 1.025-1.187 1.889-2.211 1.889h-32.785c-.324 0-.701.27-.755.647l-1.024 5.775c-.054.324.161.648.539.648h26.368c1.024 0 1.725.809 1.564 1.889l-1.78 9.714c-.162 1.026-1.186 1.889-2.211 1.889h-26.368c-.323 0-.701.27-.755.648l-.97 5.397c-.054.324.162.648.539.648h32.785c1.024 0 1.725.809 1.564 1.889l-1.996 10.956c-.161 1.025-1.186 1.889-2.21 1.889H89.889c-1.78 0-2.912-1.404-2.589-3.131l9.005-49.868c.324-1.727 1.995-3.13 3.721-3.13h47.128m0-5.667h-47.128c-4.422 0-8.304 3.292-9.113 7.61l-9.005 49.868c-.431 2.429.216 4.857 1.726 6.692s3.828 2.861 6.255 2.861h47.128c3.666 0 6.956-2.753 7.603-6.369l1.995-10.956c.377-2.105-.162-4.209-1.51-5.829a6.758 6.758 0 0 0-3.828-2.32 8.098 8.098 0 0 0 .808-2.267l1.78-9.715c.269-1.511.054-3.076-.593-4.371h1.294c3.721 0 6.956-2.753 7.603-6.369l1.887-10.578c.378-2.105-.162-4.21-1.51-5.829-1.294-1.51-3.289-2.428-5.392-2.428Z" fill="#fff"/><path d="M191.209 144.856c-2.481 0-5.554 0-7.118-3.022l-5.662-11.064h-10.461l-1.564 8.689c-.539 3.022-3.343 5.343-6.416 5.343h-10.569c-1.672 0-3.181-.701-4.152-1.889-1.025-1.187-1.402-2.806-1.132-4.425l9.005-49.815c.539-3.022 3.343-5.343 6.416-5.343h39.903c4.799 0 9.005 1.889 11.809 5.29 2.858 3.4 3.936 7.879 3.073 12.574l-2.318 12.737c-1.025 5.505-4.637 10.632-9.706 13.763l5.5 9.552c.917 1.619.917 3.454 0 5.02-.917 1.565-2.534 2.482-4.368 2.482-3.019 0-5.392.054-7.279.108-1.294.054-2.373.054-3.29.054h-.539c-.431-.054-.809-.054-1.132-.054Zm-1.672-33.623c.216 0 .593-.27.647-.54l1.456-7.934h-18.549l-1.51 8.42h17.956v.054Z" fill="url(#e)"/><path d="M199.459 86.029c8.196 0 13.642 6.53 12.186 14.626l-2.318 12.737c-1.025 5.558-5.015 10.308-10.084 12.79-.377.162-.539.594-.377.918l6.578 11.442c.863 1.565-.215 3.4-1.995 3.4-5.068 0-8.358.162-10.569.162h-1.671c-2.966 0-4.044-.27-4.637-1.511l-6.04-11.766a1.608 1.608 0 0 0-1.402-.81h-12.779c-.324 0-.701.27-.755.648l-1.888 10.362c-.323 1.727-1.995 3.131-3.72 3.131h-10.569c-1.726 0-2.912-1.404-2.588-3.131l9.005-49.814c.323-1.727 1.995-3.13 3.72-3.13h39.903m-30.574 27.902h20.652c1.564 0 3.02-1.241 3.29-2.752l1.509-8.366c.27-1.511-.755-2.752-2.318-2.752h-20.653c-.323 0-.701.27-.754.648l-2.265 12.683c-.054.269.162.539.539.539Zm30.574-33.407h-39.903c-4.421 0-8.304 3.292-9.112 7.61l-9.006 49.814c-.431 2.429.162 4.857 1.726 6.692 1.51 1.835 3.828 2.861 6.255 2.861h10.569c4.421 0 8.304-3.292 9.113-7.61l1.186-6.477h6.471l4.907 9.553c2.264 4.48 7.009 4.48 9.544 4.48h1.725c.971 0 2.049 0 3.344-.054 1.887-.054 4.259-.108 7.225-.108 2.804 0 5.285-1.457 6.687-3.832 1.402-2.375 1.402-5.289.053-7.718l-4.259-7.394c4.583-3.562 7.764-8.635 8.789-14.086l2.319-12.737c1.024-5.505-.324-10.794-3.667-14.842-3.343-3.886-8.412-6.152-13.966-6.152Zm-24.103 24.988h12.995l-.539 2.968h-12.996l.54-2.968Z" fill="#fff"/><path d="M215.204 144.856c-2.103 0-3.99-.863-5.23-2.375-1.24-1.511-1.78-3.562-1.402-5.613l2.211-12.251c.701-3.94 4.367-6.962 8.358-6.962h51.927c.269 0 .647-.324.701-.594l.916-4.965h-28.309c-2.049 0-3.936-.863-5.176-2.321-1.294-1.511-1.78-3.562-1.456-5.612.269-1.512.539-3.185.863-4.858.323-1.835.647-3.724.916-5.343.701-3.94 4.314-7.016 8.304-7.016h28.687c.27 0 .647-.324.647-.54l.863-4.965H30.358c-.162 2.968-2.588 5.343-5.608 5.343a5.375 5.375 0 0 1-3.936-1.673L7.603 71.834c-1.078-1.079-1.618-2.482-1.618-3.993 0-1.512.593-2.915 1.618-3.994L20.868 50.57c1.078-1.08 2.48-1.673 3.936-1.673 2.966 0 5.446 2.32 5.608 5.235h78.889a4.072 4.072 0 0 1-.863-2.482c0-1.89 1.24-3.455 3.073-3.94 15.368-3.778 23.511-7.394 29.065-12.9 5.5-5.504 9.113-13.654 12.887-29.09.431-1.834 2.049-3.075 3.936-3.075 1.888 0 3.451 1.24 3.937 3.076 3.774 15.381 7.387 23.53 12.887 29.09 5.5 5.505 13.643 9.12 29.01 12.899 1.834.431 3.074 2.05 3.074 3.94 0 .917-.324 1.834-.863 2.482h81.585c6.848 0 12.887 2.645 16.931 7.502 4.045 4.803 5.662 11.172 4.476 17.918l-1.51 8.69c-.701 3.94-2.426 7.825-5.23 11.603 1.456 3.832 1.833 7.772 1.132 11.711l-1.564 8.69c-2.426 13.492-15.583 24.502-29.279 24.502h-56.781v.108Z" fill="url(#f)"/><path d="M157.399 5.505c.54 0 1.079.324 1.241.971 7.171 29.522 14.451 36.754 43.946 43.986 1.295.324 1.295 2.213 0 2.537-3.451.863-6.578 1.673-9.49 2.59-.809.27-.647 1.404.216 1.404h93.717c12.456 0 20.868 9.93 18.765 22.235l-1.51 8.69c-.755 4.371-2.912 8.257-5.716 11.657 1.564 3.4 2.373 7.286 1.564 11.658l-1.564 8.635c-2.21 12.305-14.127 22.236-26.583 22.236h-56.781c-2.642 0-4.421-2.105-3.936-4.75l2.211-12.251c.485-2.591 3.019-4.749 5.662-4.749h51.927c1.564 0 3.127-1.242 3.397-2.807l.971-5.343c.269-1.565-.755-2.86-2.373-2.86h-28.687c-2.642 0-4.367-2.159-3.936-4.75.539-3.13 1.24-7.07 1.779-10.146.486-2.645 2.966-4.75 5.608-4.75h28.687c1.564 0 3.074-1.295 3.343-2.86l.917-5.343c.27-1.565-.809-2.806-2.373-2.806H28.848a1.14 1.14 0 0 0-1.132 1.133v1.295c0 1.727-1.402 2.86-2.912 2.86-.7 0-1.402-.27-1.995-.863L9.544 69.838c-1.132-1.134-1.132-2.969 0-4.048L22.81 52.513c.593-.594 1.294-.863 1.995-.863 1.456 0 2.912 1.133 2.912 2.914v1.187c0 .648.54 1.134 1.133 1.134h92.638c.809 0 1.025-1.188.216-1.404a206.233 206.233 0 0 0-9.49-2.59c-1.295-.324-1.295-2.213 0-2.537 29.495-7.178 36.721-14.464 43.946-43.986.108-.54.647-.863 1.24-.863Zm0-5.505c-3.127 0-5.823 2.105-6.578 5.181-3.613 14.842-7.01 22.668-12.187 27.795-5.122 5.127-12.887 8.527-27.77 12.197-2.965.702-5.068 3.292-5.176 6.369H32.569a8.374 8.374 0 0 0-7.765-5.236c-2.21 0-4.313.864-5.877 2.43L5.662 62.011c-3.235 3.238-3.235 8.581 0 11.82l13.265 13.276a8.277 8.277 0 0 0 5.877 2.429c3.56 0 6.579-2.213 7.82-5.343h242.218v.053h-26.961c-5.23 0-10.083 4.102-11 9.283-.27 1.62-.647 3.508-.971 5.397-.269 1.674-.593 3.293-.862 4.75-.486 2.914.215 5.775 2.049 7.879 1.779 2.105 4.421 3.347 7.279 3.347h25.02v.054h-50.255c-5.339 0-10.084 3.939-11.054 9.228l-2.211 12.252c-.539 2.86.215 5.721 1.995 7.825 1.779 2.159 4.475 3.347 7.333 3.347h56.781c7.333 0 14.666-2.753 20.652-7.772 5.985-5.019 10.029-11.766 11.324-18.944l1.563-8.689c.701-3.94.432-7.88-.755-11.765 2.589-3.724 4.206-7.61 4.907-11.604l1.51-8.69c1.294-7.555-.539-14.68-5.122-20.13-4.584-5.451-11.378-8.473-19.035-8.473h-78.026c-.108-3.023-2.211-5.613-5.176-6.369-14.829-3.616-22.594-7.016-27.77-12.197-5.123-5.127-8.52-12.9-12.187-27.795-.647-3.02-3.343-5.18-6.471-5.18Z" fill="#fff"/><defs><linearGradient id="a" x1="1.501" y1="75.127" x2="309.851" y2="75.127" gradientUnits="userSpaceOnUse"><stop stop-color="#ED3030"/><stop offset="1" stop-color="#660E0E"/></linearGradient><linearGradient id="b" x1="37.121" y1="83.361" x2="37.121" y2="144.837" gradientUnits="userSpaceOnUse"><stop stop-color="#ED3030"/><stop offset="1" stop-color="#660E0E"/></linearGradient><linearGradient id="c" x1="74.475" y1="83.361" x2="74.475" y2="144.837" gradientUnits="userSpaceOnUse"><stop stop-color="#ED3030"/><stop offset="1" stop-color="#660E0E"/></linearGradient><linearGradient id="d" x1="117.991" y1="83.255" x2="117.991" y2="144.836" gradientUnits="userSpaceOnUse"><stop stop-color="#ED3030"/><stop offset="1" stop-color="#660E0E"/></linearGradient><linearGradient id="e" x1="179.358" y1="83.31" x2="179.358" y2="144.839" gradientUnits="userSpaceOnUse"><stop stop-color="#ED3030"/><stop offset="1" stop-color="#660E0E"/></linearGradient><linearGradient id="f" x1="145.723" y1="4.759" x2="173.581" y2="162.61" gradientUnits="userSpaceOnUse"><stop offset=".117" stop-color="#ED3030"/><stop offset="1" stop-color="#660E0E"/></linearGradient></defs></svg>