<svg width="336" height="163" fill="none" xmlns="http://www.w3.org/2000/svg"><path d="m332.933 53.605-17.543 97.209c-1.208 6.615-7.421 11.85-14.15 11.85h-20.535c-.403 0-.863 0-1.266-.058l-21.11-.575h-.172c-3.854 0-6.845.057-9.319.115-1.668.057-3.106.057-4.314.057h-2.186c-3.278 0-9.318 0-12.251-5.809l-6.328-12.31h-8.34l-1.496 8.341c-1.035 5.579-6.039 9.778-11.734 9.778h-13.575c-3.163 0-6.097-1.38-8.11-3.681l-.115-.115a9.927 9.927 0 0 1-7.823 3.796h-60.799c-3.164 0-6.097-1.322-8.053-3.681a9.731 9.731 0 0 1-1.323-2.071c-2.128 3.452-5.982 5.752-10.181 5.752H78.635c-3.164 0-6.097-1.38-8.11-3.681-1.956-2.358-2.762-5.464-2.186-8.57l7.535-41.588c-.69.115-1.38.23-2.128.23h-14.84l-7.938 43.946c-1.036 5.58-6.04 9.779-11.735 9.779H25.658c-3.163 0-6.097-1.381-8.053-3.682-1.955-2.358-2.76-5.464-2.185-8.57l7.477-41.415H10.588c-3.164 0-6.097-1.323-8.053-3.682C.58 102.612-.225 99.506.35 96.4l1.84-10.354c1.035-5.58 6.04-9.778 11.734-9.778h63.158c2.703 0 5.234.978 7.132 2.703a11.694 11.694 0 0 1 7.478-2.703h13.632c3.164 0 6.098 1.38 8.053 3.681.518.633.921 1.266 1.323 1.956 2.129-3.509 5.982-5.81 10.181-5.81h57.866a6.578 6.578 0 0 1 1.266-3.624c5.234-7.19 5.349-8.455 1.38-16.393a6.593 6.593 0 0 1 .288-6.442c1.208-1.956 3.393-3.164 5.637-3.164 1.438 0 2.761.46 3.911 1.265 4.717 3.452 6.788 4.142 8.398 4.142.863 0 1.956-.23 3.336-.69.403-.115.403-.69.058-.863a188.07 188.07 0 0 0-7.075-2.761c-3.451-1.265-5.637-4.717-5.235-8.34.403-3.682 3.222-6.558 6.903-7.075 19.097-2.531 22.605-5.407 29.105-23.469a8.016 8.016 0 0 1 7.536-5.292c3.968 0 7.42 2.991 7.937 6.96 1.899 14.265 3.969 19.845 12.54 24.504 5.752 3.106 12.194 4.602 18.694 4.66h43.658c3.682 0 7.133 1.552 9.434 4.313 2.185 2.474 3.106 6.097 2.415 9.779Z" fill="#fff"/><path d="M273.342 73.392c.46.46.978.805 1.61 1.035a4.823 4.823 0 0 1-1.61-1.035ZM193.906 60.91c.863 3.969.058 7.19-2.646 11.504 2.704-4.314 3.567-7.478 2.646-11.504Z" fill="#fff"/><path d="m333.854 52.684-17.544 97.21c-1.208 6.615-7.42 11.849-14.15 11.849h-20.535c-.403 0-.863 0-1.265-.057l-21.111-.575h-.172c-3.854 0-6.845.057-9.318.115-1.669.057-3.107.057-4.314.057h-2.301c-3.279 0-9.319 0-12.252-5.81l-6.327-12.309h-8.341l-1.495 8.341c-1.036 5.579-6.04 9.778-11.735 9.778h-13.575c-3.163 0-6.097-1.38-8.11-3.681l-.115-.115a9.927 9.927 0 0 1-7.823 3.796h-60.684c-3.164 0-6.097-1.323-8.053-3.681a9.731 9.731 0 0 1-1.323-2.071c-2.128 3.451-5.982 5.752-10.18 5.752H79.554c-3.163 0-6.097-1.38-8.11-3.681-1.956-2.359-2.761-5.465-2.186-8.571l7.535-41.587c-.69.115-1.38.23-2.128.23h-14.84l-7.938 43.946c-1.036 5.579-6.04 9.778-11.734 9.778H26.52c-3.163 0-6.097-1.38-8.053-3.681-1.955-2.359-2.76-5.465-2.185-8.571l7.477-41.415H11.45c-3.163 0-6.096-1.323-8.052-3.681-1.956-2.358-2.761-5.464-2.186-8.57l1.84-10.354c1.036-5.58 6.04-9.779 11.735-9.779h63.158c2.703 0 5.234.978 7.132 2.704a11.694 11.694 0 0 1 7.478-2.704h13.632c3.164 0 6.097 1.38 8.053 3.682.518.632.92 1.265 1.323 1.955 2.128-3.508 5.982-5.81 10.181-5.81h57.866a6.577 6.577 0 0 1 1.265-3.623c5.235-7.19 5.35-8.456 1.381-16.393a6.593 6.593 0 0 1 .287-6.443c1.208-1.955 3.394-3.163 5.637-3.163 1.438 0 2.761.46 3.912 1.265 4.717 3.451 6.787 4.142 8.398 4.142.863 0 1.956-.23 3.336-.69.403-.116.403-.69.058-.863a188.081 188.081 0 0 0-7.075-2.761c-3.452-1.266-5.637-4.717-5.235-8.34.403-3.682 3.221-6.558 6.903-7.076 19.097-2.53 22.605-5.407 29.105-23.468a8.014 8.014 0 0 1 7.535-5.292c3.969 0 7.42 2.99 7.938 6.96 1.898 14.265 3.969 19.844 12.54 24.503 5.752 3.107 12.194 4.602 18.694 4.66h43.658c3.681 0 7.132 1.553 9.433 4.314 2.186 2.473 3.106 6.154 2.474 9.778Z" fill="#1F3689"/><path d="M189.764 75.117v.173c-.057-.058-.057-.115 0-.173Zm-.057.173c0 .057 0 .115.058.172 0-.057-.058-.115-.058-.172Z" fill="#1F3689"/><path d="m248.205 102.152-1.955 10.814c-.345 1.955-2.244 3.566-4.257 3.566h-26.574c-.46 0-.748-.345-.691-.805l2.934-16.279c.058-.46.518-.805.978-.805h26.574c2.014-.057 3.337 1.496 2.991 3.509Zm-58.786-19.27-2.473 13.575c-.23 1.323-1.553 2.416-2.876 2.416h-.69c-.518-2.646-1.783-7.708-1.783-7.708l.287-10.698h5.522c1.381 0 2.244 1.092 2.013 2.415Z" fill="#fff"/><path d="M254.82 80.524h-51.365c-2.244 0-4.372 1.783-4.775 3.97l-11.561 64.135c-.403 2.185 1.093 4.026 3.336 4.026h13.575c2.243 0 4.371-1.783 4.774-4.026l2.416-13.288c.057-.46.518-.805.978-.805h16.451c.805 0 1.495.403 1.84 1.093l7.766 15.128c.92 1.783 2.53 2.013 7.477 1.898h4.659c2.531-.058 5.637-.115 9.664-.115 2.301 0 3.681-2.416 2.531-4.372l-8.456-14.725c-.23-.403 0-.92.518-1.15 6.557-3.164 11.734-9.319 13-16.451l2.933-16.394c1.841-10.526-5.234-18.924-15.761-18.924Zm-6.614 21.628-1.956 10.814c-.345 1.955-2.243 3.566-4.257 3.566h-26.574c-.46 0-.748-.345-.69-.805l2.933-16.279c.058-.46.518-.805.978-.805h26.575c2.013-.057 3.336 1.496 2.991 3.509ZM82.259 84.608 80.36 94.962c-.173.863-.518 1.61-1.093 2.243-.92 1.035-2.301 1.726-3.682 1.726H55.684c-.46 0-.863.345-.978.805l-8.858 48.893c-.402 2.185-2.53 4.026-4.774 4.026H27.557c-2.244 0-3.74-1.783-3.337-4.026l8.858-48.893c.116-.46-.23-.805-.69-.805H12.486c-2.243 0-3.739-1.783-3.336-4.027l1.84-10.353c.403-2.186 2.531-4.027 4.775-4.027h63.157c1.439 0 2.531.748 3.049 1.84.345.691.46 1.439.288 2.244Zm7.075-1.61a4.96 4.96 0 0 0-.633 1.61L85.94 99.966c.633-1.15 1.15-2.416 1.38-3.739l1.899-10.353c.172-.978.172-1.956.115-2.876Zm220.879 64.538v.115c0-.058.057-.173.057-.23 0-.115.058-.23.058-.288 0 .115-.058.23-.115.403ZM278.979 46.012l.23-.23c0-.058.058-.058.058-.058l-.288.288Zm-29.623-13.575-.288-.288c.115.115.23.288.403.46.115.116.23.288.403.403-.173-.172-.345-.402-.518-.575Zm-45.211 22.778h.23c-.058.058-.173.058-.23 0Zm-.115 0h.115-.115Z" fill="#fff"/><path d="M204.145 55.215h.23c-.058.058-.173.058-.23 0Zm-93.701 29.393-11.562 64.078c-.403 2.186-2.53 4.027-4.774 4.027H80.533c-2.243 0-3.739-1.784-3.336-4.027l8.8-48.72 2.761-15.358c.116-.575.346-1.093.633-1.61.863-1.438 2.531-2.416 4.2-2.416h13.632c2.128 0 3.623 1.783 3.221 4.026Zm-28.473-2.186c-.115.288-.173.633-.23.92L79.21 97.206c.575-.633.978-1.438 1.093-2.243L82.2 84.608a2.835 2.835 0 0 0-.23-2.186Zm107.448.461-2.473 13.575c-.23 1.323-1.553 2.415-2.876 2.415h-42.22c-.46 0-.863.346-.978.806l-1.323 7.42c-.057.46.23.805.69.805h33.938c1.322 0 2.243 1.093 2.013 2.416l-2.244 12.482c-.23 1.323-1.553 2.416-2.876 2.416h-33.937c-.46 0-.863.345-.978.805l-1.265 6.96c-.058.46.23.805.69.805h42.22c1.323 0 2.244 1.093 2.014 2.416l-2.531 14.093c-.23 1.323-1.553 2.416-2.876 2.416h-60.742c-2.243 0-3.739-1.783-3.394-4.027l11.619-64.193c.403-2.185 2.531-4.026 4.775-4.026h60.741c1.381 0 2.244 1.093 2.013 2.416Zm65.401-2.359h-51.365c-2.244 0-4.372 1.783-4.775 3.97l-11.561 64.135c-.403 2.185 1.093 4.026 3.336 4.026h13.575c2.243 0 4.371-1.783 4.774-4.026l2.416-13.288c.057-.46.518-.805.978-.805h16.451c.805 0 1.495.403 1.84 1.093l7.766 15.128c.92 1.783 2.53 2.013 7.477 1.898h4.659c2.531-.058 5.637-.115 9.664-.115 2.301 0 3.681-2.416 2.531-4.372l-8.456-14.725c-.23-.403 0-.92.518-1.15 6.557-3.164 11.734-9.319 13-16.451l2.933-16.394c1.841-10.526-5.234-18.924-15.761-18.924Zm-6.614 21.628-1.956 10.814c-.345 1.955-2.243 3.566-4.257 3.566h-26.574c-.46 0-.748-.345-.69-.805l2.933-16.279c.058-.46.518-.805.978-.805h26.575c2.013-.057 3.336 1.496 2.991 3.509Zm-33.305-26.747c-.345-.69-.632-1.323-.92-1.956h-3.509c.115.058.173.115.288.173.23.115.46.287.69.402.058.058.115.058.115.115.288.173.575.346.863.576.575.402 1.15.805 1.783 1.265h.345c.058 0 .058 0 .115-.057 0 0 .058 0 .058-.058 0 0 .057-.057.115-.057.115 0 .172-.173.057-.403Zm17.429-1.898.173.172c.057.058.115.058.115.115.057 0 .115.058.172.058h.518c.057 0 .115-.058.172-.058.058-.057.173-.115.23-.172.058 0 .058-.058.058-.058h-1.438v-.057Zm95.657-24.734c0 .345 0 .69-.115 1.093l-17.544 97.209c0 .115-.058.231-.058.288 0 .058 0 .115-.057.173v.172c-.058.173-.115.288-.173.46 0 .058 0 .115-.057.173-.058.057-.058.172-.115.23 0 .115-.058.173-.115.23 0 .058-.058.115-.058.173-.115.172-.172.345-.288.517 0 0 0 .058-.057.058-.058.057-.058.115-.115.172-.058.115-.115.173-.173.288a.787.787 0 0 1-.172.23c-.115.115-.23.23-.288.345l-.345.345c-.115.115-.288.23-.403.345-.057 0-.057.058-.115.058l-.115.115c-.115.115-.23.173-.345.288-.115.057-.23.172-.345.23-.575.402-1.265.69-1.956.862-.23.058-.402.116-.632.173a9.336 9.336 0 0 1-1.266.115h-20.535c-3.393 0-5.637-2.703-5.061-6.04l12.884-71.095c.115-.46.058-.92 0-1.323 0-.057 0-.115-.057-.173v-.057c0-.058-.058-.115-.058-.173l-.172-.345v-.057c-.058-.058-.058-.115-.115-.173l-.173-.172h-.058c-.057-.058-.115-.116-.115-.173l-.057-.058c-.115-.114-.173-.172-.288-.23-.057-.057-.115-.115-.172-.115-.058 0-.058-.057-.115-.057-.058-.058-.115-.058-.173-.115-.057 0-.057-.058-.115-.058h-.057c-.115-.057-.173-.057-.288-.115h-.115c-.058 0-.115 0-.173-.057h-.115c-.115 0-.172 0-.287-.058h-9.491c-.115 0-.23 0-.345-.057h-.288c-.057 0-.115 0-.172-.058-.058 0-.173-.057-.231-.057-.057 0-.115-.058-.23-.058-.057 0-.115-.057-.115-.057-.057 0-.115 0-.115-.058-.115-.057-.23-.115-.287-.115a3.269 3.269 0 0 1-.403-.23c-.518-.345-.978-.748-1.323-1.266a.44.44 0 0 1-.115-.23c0-.057-.058-.057-.058-.115a.44.44 0 0 1-.115-.23c-.115-.23-.23-.46-.287-.69 0-.057-.058-.172-.058-.23-.057-.115-.057-.288-.115-.46v-.058c0-.115-.057-.287-.057-.402-.058-.518 0-1.036.057-1.553l2.934-16.451c0-.173.057-.288.115-.46v-.116c0-.057 0-.057.057-.114l.173-.518c0-.058.057-.115.057-.173 0-.057.058-.057.058-.115.058-.115.115-.23.115-.287l.173-.346c0-.057.057-.115.115-.172 0 0 0-.058.057-.058.058-.115.115-.172.173-.287.057-.058.115-.173.172-.23.115-.173.288-.345.403-.518.057-.057.115-.173.23-.23a45.352 45.352 0 0 0 .46-.46l.23-.23c.058-.058.173-.115.23-.23.115-.058.173-.115.288-.173.115-.057.173-.115.288-.172.115-.058.172-.116.287-.173 0 0 .058 0 .058-.058.057 0 .115-.057.172-.115.058-.057.115-.057.173-.115.057 0 .115-.057.172-.057.173-.058.288-.115.461-.23h.115c.057 0 .057 0 .115-.058.057 0 .115-.057.172-.057.115-.058.23-.058.345-.115.115 0 .23-.058.288-.058h.115c.057 0 .115 0 .173-.057h.057c.058 0 .115-.058.23-.058.173 0 .345-.057.46-.057h39.229c.576 0 1.093.057 1.611.23.172.057.345.115.46.172.115.058.288.115.403.173h.057c.288.115.518.287.748.46l.173.172c.057 0 .057.058.115.058l.115.115.057.058a.796.796 0 0 1 .173.23l.057.057.058.058c.057.057.115.115.115.172l.057.058.058.057.057.058c.115.115.173.287.23.402.058.115.115.288.231.46.115.288.23.576.287.863.058.173.058.346.058.518v.403Z" fill="#fff"/><path d="M269.603 44.229c0 .46-.287.863-.805.977-21.685 2.877-27.437 7.536-34.857 28.07-.058.116-.058.173-.115.23l-.058.058c-.057.058-.172.115-.23.173-.058 0-.115.057-.173.057h-.517c-.058 0-.115-.057-.173-.057-.057 0-.115-.058-.115-.115l-.172-.173s-.058-.057-.058-.115c-.057-.115-.115-.23-.115-.345v-.173c-.057-.46-.115-.978-.173-1.438-.057-.517-.172-1.035-.23-1.495a14.279 14.279 0 0 0-.287-1.668c0-.115-.058-.23-.058-.288-.057-.23-.057-.403-.115-.575l-.172-.863c-.173-.92-.345-1.84-.518-2.703-.115-.403-.173-.806-.288-1.208 0-.115-.057-.23-.115-.403-.057-.172-.115-.345-.115-.518-.057-.172-.115-.402-.172-.575-.058-.115-.058-.287-.115-.403-.058-.23-.115-.46-.173-.632 0-.058 0-.058-.057-.115-.058-.173-.115-.288-.115-.46-.058-.173-.115-.288-.115-.46 0-.116-.058-.173-.058-.23-.058-.23-.173-.46-.23-.69-.115-.346-.23-.634-.345-.979-.058-.115-.058-.23-.115-.345-.058-.23-.173-.403-.23-.633-.115-.23-.173-.402-.288-.632 0-.058-.057-.115-.057-.173-.288-.633-.633-1.265-.978-1.898-.058-.115-.115-.173-.115-.23l-.173-.345c-.057-.058-.057-.115-.115-.23l-.345-.518c-.058-.115-.115-.173-.173-.288-.632-.92-1.323-1.84-2.07-2.646-.115-.115-.288-.287-.403-.46-.115-.172-.288-.287-.46-.46l-.345-.345-.058-.058-.057-.057c-.058-.058-.173-.115-.23-.23-.058-.058-.173-.115-.23-.23a3.271 3.271 0 0 1-.461-.403 3.316 3.316 0 0 1-.46-.403c-.172-.115-.345-.287-.518-.402-.345-.288-.69-.518-1.035-.748-.172-.115-.403-.23-.575-.403-.173-.115-.345-.23-.575-.402-.115-.115-.288-.173-.46-.288h-.058c-.058 0-.058-.057-.115-.057-.23-.115-.403-.23-.633-.346-.23-.114-.402-.23-.632-.345-.058-.057-.116-.057-.173-.115h-.058c-.345-.172-.69-.402-1.035-.575l-.345-.172-.345-.173c-.058-.057-.115-.057-.173-.115-.172-.115-.345-.173-.517-.288l-.346-.172-.345-.173c-.172-.057-.345-.172-.517-.23-.058 0-.115-.057-.173-.057-.23-.115-.518-.23-.748-.346-.23-.114-.517-.23-.747-.345-.231-.115-.518-.23-.806-.345-.23-.115-.517-.23-.748-.345-.287-.115-.575-.23-.92-.345l-1.725-.69c-.058 0-.173-.058-.231-.058a.439.439 0 0 1-.23-.115c-.172-.057-.287-.115-.46-.172-.633-.23-1.208-.46-1.898-.69h-.057c-.058 0-.058 0-.116-.058 0 0-.057-.058-.115-.058-.057 0-.057-.057-.057-.057-.058-.058-.058-.115-.115-.115 0-.058-.058-.115-.058-.173v-.23c-.057-.23.058-.517.173-.748.057-.057.057-.115.115-.115 0 0 .057-.057.115-.057s.058-.058.115-.058c.058 0 .058-.057.115-.057.058 0 .115-.058.173-.058 21.685-2.876 27.437-7.535 34.857-28.07 0-.057.058-.115.058-.172 0 0 0-.058.057-.058.058-.057.115-.115.115-.172.058-.058.173-.115.23-.173.058 0 .115-.057.115-.057h.403c.057 0 .115 0 .173.057.057 0 .115.058.172.058.058 0 .115.057.115.115.058.057.115.057.115.115 0 0 .058.057.058.115 0 0 .057.057.057.115.058.115.058.172.115.287.115.633.173 1.266.23 1.841v.115c.115.575.173 1.15.23 1.668.115.575.173 1.15.288 1.726 0 .115.058.23.058.345 0 .115.057.23.057.345v.172c.23 1.093.403 2.129.633 3.164l.517 2.07c.058.289.173.519.231.806.115.46.23.92.402 1.323.058.23.115.46.23.633.058.23.115.403.23.633.058.23.173.517.288.747.115.345.288.748.46 1.093l1.035 2.244c.173.345.346.69.576 1.035.115.172.172.345.287.518l.518.863c.058.057.058.114.115.114.115.173.23.346.345.46 0 .058.058.058.058.116 0 .057.057.115.115.115.057.057.115.172.172.23.115.172.23.287.345.46.115.115.23.288.346.46.115.173.23.288.402.46l.288.288c.172.172.345.403.517.575 0 0 0 .058.058.058l.173.172c.172.23.402.403.632.575.23.173.403.403.633.576l.173.172c.057.058.115.115.172.115.058.058.115.115.173.115.057.058.172.115.23.173.345.23.632.517.978.748.345.23.69.46 1.035.747.058.058.115.115.23.173.058.057.173.115.23.172h.058c.23.115.402.288.632.403.346.23.691.403 1.036.633.23.172.517.288.805.46.173.115.403.23.575.288.288.172.518.287.806.402.172.115.345.173.46.23l.69.346c.057.057.115.057.23.114.403.173.748.346 1.208.518.115.058.23.115.288.115.575.23 1.092.518 1.725.748.575.23 1.208.46 1.783.748l.806.345c.517.23 1.093.46 1.668.633.575.23 1.15.402 1.783.632.057 0 .115.058.115.058.057.057.115.057.115.115.057 0 .057.057.115.115.058 0 .057.058.057.115 0 0 0 .057.058.057 0 0 0 .058.058.058 0 .058.057.115.057.173v.115c-.403-.115-.403-.058-.403 0Z" fill="#fff"/><path d="M216.915 52.282c0-.058 0-.115-.058-.115a.123.123 0 0 0-.115-.115l-.058-.058s-.057 0-.057-.057h-.288c.23.057.403.23.576.345Z" fill="#fff"/><path d="M216.914 52.282v.172c0 .058-.057.115-.057.115-1.151 1.553-2.071 2.934-2.819 4.257-.287.517-.575 1.035-.805 1.495-.23.518-.46.978-.633 1.438l-.517 1.38c-.518 1.726-.633 3.395-.403 5.178 0 .172.057.345.115.575.057.403.172.805.288 1.208 0 .115.057.172.057.287.23.748.46 1.553.805 2.359a.44.44 0 0 0 .115.23c.23.633.518 1.323.863 2.013.058.115.058.173.115.288 0 .057.058.115.058.172.287.633.575 1.266.92 1.956.115.23.058.403-.115.517 0 0-.057.058-.115.058 0 0-.058 0-.058.058-.057 0-.057 0-.115.057h-.287s-.058 0-.058-.057c-.632-.46-1.208-.863-1.783-1.266a7.348 7.348 0 0 0-.863-.575c-.057 0-.115-.058-.115-.115-.23-.173-.46-.288-.69-.46-.115-.058-.172-.115-.288-.173 0 0-.057-.057-.115-.057-.057-.058-.115-.058-.172-.115-.058-.058-.173-.115-.23-.173-.058 0-.115-.058-.115-.058-.23-.115-.403-.23-.633-.345-.978-.575-1.956-.977-2.876-1.323a2.802 2.802 0 0 1-.633-.23h-.057c-.115-.057-.23-.057-.345-.115h-.115c-.115-.057-.288-.057-.403-.115-.173-.057-.403-.057-.575-.115-.173-.057-.403-.057-.575-.115-.116 0-.231-.057-.403-.057h-2.474c-.057 0-.172 0-.23.057h-.172c-.115 0-.173 0-.288.058-.23 0-.46.057-.69.115h-.058c-.115 0-.287.057-.402.115-.058 0-.173.057-.23.057-.115 0-.23.058-.345.115-.173.058-.288.115-.461.115a7.176 7.176 0 0 1-.575.173c-.057 0-.172.057-.23.057-.115.058-.23.058-.287.116a.439.439 0 0 0-.231.115c-.172.057-.287.115-.46.172h-.057c-.23.115-.46.173-.748.288h-.057c-.231.115-.461.23-.748.287-.288.058-.518.23-.748.345-.518.23-1.035.46-1.553.748-.288.115-.518.288-.805.403h-.288c-.057 0-.058 0-.115-.058a.793.793 0 0 1-.173-.23v-.287c0-.058.058-.115.058-.115a48.845 48.845 0 0 0 3.279-5.005c.517-.978.977-1.955 1.323-2.876.057-.23.172-.46.23-.69 0-.058.057-.172.057-.23.058-.173.058-.288.115-.46 0-.058.058-.115.058-.173 0-.057.057-.172.057-.23 0-.057 0-.115.058-.172 0-.058 0-.116.057-.173v-.518c0-.23.058-.46.058-.69v-2.07c0-.172-.058-.345-.058-.517v-.174c-.057-.345-.115-.633-.172-.978-.058-.23-.115-.402-.173-.633 0-.114-.057-.172-.057-.287 0-.115-.058-.23-.115-.345-.058-.23-.115-.46-.23-.633v-.057a11.097 11.097 0 0 0-.461-1.266c-.172-.403-.287-.805-.517-1.208-.23-.46-.403-.978-.691-1.495a.433.433 0 0 0-.115-.23c0-.058-.057-.058-.057-.116-.23-.46-.46-.977-.748-1.495-.057-.115-.057-.23-.057-.288 0-.057 0-.057.057-.115 0-.057.058-.115.115-.172.058-.058.115-.058.173-.115h.287c.058 0 .115.057.115.057.633.46 1.208.863 1.784 1.266.287.172.517.345.747.517l.058.058c.23.115.402.287.633.402.057 0 .057.058.115.058.057 0 .057.058.115.058.172.115.345.23.517.287.115.058.23.115.288.173.057.057.115.057.172.115.115.057.173.115.288.172a.44.44 0 0 0 .23.115h.115c.23.115.518.288.748.403.057.058.115.058.173.115.057.058.115.058.172.115l.345.173s.058 0 .115.057c.288.115.518.23.748.345.115.058.173.058.288.115.287.115.575.23.862.288h.058c.115.057.288.115.46.115.058 0 .115 0 .173.058h.172c.115.057.288.057.403.115h.172c.115 0 .173.057.288.057.115 0 .288.058.403.058h2.818c.173 0 .403-.058.575-.058.058 0 .173 0 .23-.057.231-.058.461-.058.691-.115.402-.115.805-.173 1.208-.346.115-.057.23-.057.345-.115.287-.057.517-.172.805-.287l.863-.345c.057 0 .115-.058.172-.058.058 0 .115-.057.173-.057l.345-.173c.23-.115.46-.172.748-.288.23-.115.518-.23.748-.345.517-.23 1.035-.46 1.553-.748.287-.114.575-.287.863-.402h.402s.058 0 .058.057l.057.058c.058.058.058.115.115.115v.288Z" fill="#fff"/><path d="M287.319 72.356h-8.57 8.57Zm-55.047 1.036s.058.057.058.115c0-.058 0-.058-.058-.115Zm-1.495 7.132c.747.23 1.553.345 2.358.345.805 0 1.61-.115 2.358-.345h-4.716Zm50.56 79.551c.403.058.805.058 1.266.058h.977l-2.243-.058Zm-2.358-114.063.23-.23c0-.058.057-.058.057-.058l-.287.288Zm-9.491-2.3s-.058-.058-.058-.116c0 .058 0 .058.058.115Zm-20.765-11.965a.447.447 0 0 0 .23.23l.173.173c-.173-.116-.288-.288-.403-.403Zm-2.071-2.819c.115.173.23.345.288.518 0 0 0 .057.057.057.058.116.115.23.23.288a7.43 7.43 0 0 0-.575-.863Zm-7.075-21.11c.058 0 .115 0 .115-.057 0 0-.057 0-.115.057Zm-9.433 54.07c0-.058-.058-.115-.058-.23.058.172.115.345.115.517 0-.057-.057-.172-.057-.287Zm-7.938-14.265c.057.057.173.114.23.23a.447.447 0 0 0-.23-.23Zm-.92-.863c.172.115.345.287.46.402-.173-.115-.345-.23-.46-.402Zm-11.332 33.764c.23.173.403.288.633.46 1.15.863 2.531 1.266 3.911 1.266a6.722 6.722 0 0 0 4.487-1.726h-9.031Zm8.168-35.95c.173.115.288.172.46.288-.172-.116-.287-.23-.46-.288Zm-.748-.46c-.23-.115-.402-.23-.633-.345.403.23.806.46 1.208.747-.172-.172-.402-.287-.575-.402Zm-.805-.518c-.403-.23-.748-.403-1.093-.575.46.23.863.46 1.323.69-.115 0-.173-.057-.23-.115Zm-.058 8.283c.058 0 .058 0 0 0Zm-1.898-9.318a2.022 2.022 0 0 0-.517-.23l.69.345c-.058-.058-.115-.058-.173-.115Zm-.402 33.42a114.45 114.45 0 0 0-1.784-1.266c.576.402 1.151.862 1.784 1.265l.057.058c-.057 0-.057 0-.057-.058Zm-.461-33.823-.345-.172.691.345a93 93 0 0 1-.346-.173Zm-.92-.46c-.057 0-.115-.058-.172-.058.23.115.517.23.747.346-.23-.116-.402-.173-.575-.288Zm-.518 12.022c.115-.058.173-.058.288-.115.173-.058.288-.115.46-.173a3.99 3.99 0 0 0-.748.288Zm-1.208-12.77a11.17 11.17 0 0 0-.805-.345l1.553.69c-.23-.115-.517-.23-.748-.345Zm.346 33.132c.057.058.115.058.115.115-.058-.058-.115-.058-.115-.115Zm-.978-.575c0-.058 0-.058 0 0-.058-.058-.115-.058-.115-.058-.058-.057-.115-.057-.173-.115.115.058.173.115.288.173.057.057.172.115.287.172-.115-.057-.172-.115-.287-.172Zm-4.142-2.071c.921.345 1.898.748 2.876 1.323-1.035-.575-1.955-1.035-2.876-1.323Zm.345-32.269c.058.057.115.057.23.115-.115-.057-.172-.115-.23-.115Zm-.69 16.163h.288c-.058-.057-.173 0-.288 0Zm-4.544 15.358h-.288c.173 0 .346 0 .518-.057-.115.057-.172.057-.23.057Zm.748 0h-.23.632-.402Zm-.173-15.875c.115.057.288.115.46.115-.172-.058-.345-.058-.46-.115Zm-1.265 15.933c-.058 0-.173 0-.23.057.115 0 .23-.057.345-.057h-.115Zm-.863-16.739s.057.058.115.058c-.058-.058-.058-.058-.115-.058Zm-1.438-.747c.115.057.173.115.288.172.172.115.287.173.46.23-.288-.115-.518-.287-.748-.402Zm-.805-.46c.057.057.115.057.172.114-.057 0-.115-.057-.172-.115Zm-.748-.46c.172.114.345.23.518.287-.231-.058-.346-.173-.518-.288Zm.23 19.269c-.115.057-.23.057-.288.115l.518-.173c-.057 0-.173.058-.23.058Zm-1.035-19.787c.23.114.402.287.632.402-.23-.115-.46-.287-.632-.402Zm0 8.743v.23-.23Zm-.058-.633v-.115c0-.058 0-.115-.057-.173 0 .173.057.345.057.518a.174.174 0 0 0 0-.23Zm-.345 4.602c0-.058.057-.116.057-.173 0-.058.058-.173.058-.23-.058.115-.058.287-.115.403Zm-.058.287c0-.057.058-.172.058-.23 0 .058-.058.115-.058.23Zm-.23.69c.058-.172.115-.402.173-.575v-.115c0 .23-.115.46-.173.69Zm.058-8.398-.173-.517c.058.23.115.46.23.632-.057-.057-.057-.115-.057-.115Zm-1.956-4.889a.44.44 0 0 0 .115.23c-.057-.057-.057-.115-.115-.23Zm-2.358 21.916h-.115c.057.057.172.057.23 0h-.115Zm-1.726 8.742-2.473 13.575c-.23 1.323-1.553 2.416-2.876 2.416h-.69c-.518-2.646-1.783-7.708-1.783-7.708l.287-10.698h5.522c1.381 0 2.244 1.092 2.013 2.415Z" fill="#fff"/><path d="M254.82 80.524h-51.365c-2.244 0-4.372 1.783-4.775 3.97l-11.561 64.135c-.403 2.185 1.093 4.026 3.336 4.026h13.575c2.243 0 4.371-1.783 4.774-4.026l2.416-13.288c.057-.46.518-.805.978-.805h16.451c.805 0 1.495.403 1.84 1.093l7.766 15.128c.92 1.783 2.53 2.013 7.477 1.898h4.659c2.531-.058 5.637-.115 9.664-.115 2.301 0 3.681-2.416 2.531-4.372l-8.456-14.725c-.23-.403 0-.92.518-1.15 6.557-3.164 11.734-9.319 13-16.451l2.933-16.394c1.841-10.526-5.234-18.924-15.761-18.924Zm-6.614 21.628-1.956 10.814c-.345 1.955-2.243 3.566-4.257 3.566h-26.574c-.46 0-.748-.345-.69-.805l2.933-16.279c.058-.46.518-.805.978-.805h26.575c2.013-.057 3.336 1.496 2.991 3.509ZM204.26 55.273h.115-.23c0-.058.058 0 .115 0Z" fill="#fff"/><path d="M332.301 41.065c-2.301-2.76-5.752-4.314-9.434-4.314h-43.658c-6.5 0-12.999-1.553-18.694-4.66-8.628-4.658-10.699-10.18-12.597-24.503a8.006 8.006 0 0 0-7.938-6.96c-3.336 0-6.385 2.128-7.535 5.292-6.557 18.062-10.066 20.938-29.105 23.469-3.682.46-6.5 3.393-6.903 7.075-.402 3.68 1.726 7.132 5.235 8.34 2.703.978 5.004 1.84 7.075 2.761.402.172.345.69-.058.863-1.38.46-2.416.69-3.336.69-1.611 0-3.624-.69-8.398-4.142-1.151-.862-2.531-1.265-3.912-1.265a6.638 6.638 0 0 0-5.637 3.164 6.593 6.593 0 0 0-.287 6.442c3.969 7.995 3.854 9.203-1.381 16.393-.805 1.093-1.208 2.359-1.265 3.682h-57.751c-4.199 0-8.053 2.3-10.238 5.81-.346-.691-.748-1.381-1.266-1.956-1.956-2.359-4.889-3.682-8.053-3.682H93.533c-2.761 0-5.407.978-7.478 2.704-1.898-1.726-4.429-2.704-7.132-2.704H15.765c-5.695 0-10.699 4.2-11.734 9.779L2.19 93.696c-.576 3.107.23 6.213 2.185 8.571 1.956 2.358 4.89 3.681 8.11 3.681h12.252l-7.477 41.415c-.576 3.106.23 6.27 2.185 8.628 1.956 2.359 4.89 3.682 8.11 3.682h13.576c5.694 0 10.698-4.199 11.734-9.779l7.938-43.946h14.782c.748 0 1.439-.057 2.129-.23l-7.535 41.588c-.576 3.106.23 6.269 2.185 8.628 1.956 2.358 4.89 3.681 8.11 3.681H94.05c4.198 0 8.052-2.301 10.181-5.752a9.731 9.731 0 0 0 1.323 2.071c1.955 2.358 4.889 3.681 8.053 3.681h60.741c3.106 0 5.982-1.495 7.823-3.796l.115.115c1.956 2.358 4.889 3.681 8.111 3.681h13.574c5.695 0 10.699-4.199 11.735-9.778l1.495-8.341h8.341l6.327 12.309c2.933 5.81 9.031 5.81 12.252 5.81h2.186c1.207 0 2.645-.057 4.314-.057 2.415-.058 5.464-.115 9.318-.115h.172l21.168.575 2.243.057h19.557c6.788 0 13-5.234 14.15-11.849l17.544-97.21c.748-3.566-.23-7.19-2.473-9.95Zm-123.669-1.15-1.726-.69a.432.432 0 0 1-.23-.116.432.432 0 0 1-.23-.115c-.173-.057-.288-.115-.46-.172-.633-.23-1.208-.46-1.899-.69a.44.44 0 0 1-.23-.115s-.057-.058-.115-.058c-.057 0-.057-.058-.057-.058-.058-.057-.058-.115-.115-.115-.058-.057-.058-.115-.058-.172v-.23c-.057-.23.058-.518.173-.748.057-.058.057-.115.115-.115 0 0 .057-.057.115-.057.057 0 .057-.058.115-.058.057 0 .057-.057.115-.057.057 0 .115-.058.173-.058 21.685-2.876 27.437-7.535 34.857-28.07 0-.058.058-.115.058-.173 0 0 0-.057.057-.057.058-.058.115-.115.115-.173.058-.057.173-.115.23-.172.058 0 .115-.058.115-.058h.403c.057 0 .115 0 .172.058.058 0 .115.057.173.057.057 0 .115.058.115.115.058.058.115.058.115.115 0 0 .058.058.058.115 0 0 .057.058.057.115.058.115.058.173.115.288.115.633.173 1.265.23 1.84v.116c.115.575.173 1.15.23 1.668.115.575.173 1.15.288 1.725.057.23.057.46.115.633v.173c.23 1.093.403 2.128.633 3.163l.517 2.071c.058.288.173.518.23.805.115.46.231.92.403 1.323.058.23.115.46.23.633.058.23.115.403.23.633.058.23.173.517.288.747.115.346.287.748.46 1.093l1.035 2.244c.173.345.346.69.576 1.035.115.173.172.345.287.518l.518.863c.057.057.057.115.115.115.115.172.23.345.345.46 0 .057.058.057.058.115 0 .057.057.115.115.115.057.057.115.172.172.23.115.173.23.288.345.46.115.115.23.288.345.46.115.173.23.288.403.46l.288.288c.172.173.345.403.517.575 0 0 0 .058.058.058l.172.172c.173.23.403.403.633.576.23.172.403.402.633.575l.172.172c.058.058.115.115.173.115.058.058.115.115.173.115.057.058.172.115.23.173.345.23.632.518.977.748.346.23.691.46 1.036.748a.789.789 0 0 0 .23.172c.057.058.172.115.23.173h.058c.23.115.402.287.632.402.345.23.691.403 1.036.633.23.172.517.288.805.46.172.115.403.23.575.288.288.172.518.287.805.402.173.115.346.173.461.23l.69.346c.057.057.115.057.23.115.403.172.748.345 1.208.517.115.058.23.115.287.115.576.23 1.093.518 1.726.748.575.23 1.208.46 1.783.748l.806.345c.517.23 1.092.46 1.668.633.575.23 1.15.402 1.783.633.057 0 .115.057.115.057.057.057.115.057.115.115.057 0 .057.058.115.115.057 0 .057.058.057.115 0 0 0 .058.058.058 0 0 0 .057.057.057 0 .058.058.115.058.173v.23c0 .46-.288.863-.805.978-21.686 2.876-27.438 7.535-34.858 28.07-.057.115-.057.172-.115.23l-.057.057c-.058.058-.173.115-.23.173-.058 0-.116.057-.173.057h-.518c-.057 0-.115-.057-.172-.057a.123.123 0 0 1-.115-.115l-.173-.173s-.057-.057-.057-.115c-.058-.115-.115-.23-.115-.345v-.172c-.058-.46-.115-.978-.173-1.439-.058-.517-.173-1.035-.23-1.495a14.489 14.489 0 0 0-.288-1.668c0-.115-.057-.23-.057-.288-.058-.23-.058-.402-.115-.575l-.173-.863a235.7 235.7 0 0 0-.517-2.703c-.116-.403-.173-.806-.288-1.208 0-.115-.058-.23-.115-.403-.058-.172-.115-.345-.115-.517-.058-.173-.115-.403-.173-.576-.057-.115-.057-.287-.115-.402a9.448 9.448 0 0 0-.172-.633c0-.057 0-.057-.058-.115-.057-.173-.115-.288-.115-.46-.057-.173-.115-.288-.115-.46 0-.115-.057-.173-.057-.23-.058-.23-.173-.46-.231-.69-.115-.346-.23-.633-.345-.979-.057-.115-.057-.23-.115-.345-.057-.23-.172-.402-.23-.632-.115-.23-.172-.403-.287-.633 0-.058-.058-.115-.058-.173-.288-.632-.633-1.265-.978-1.898-.057-.115-.115-.172-.115-.23l-.172-.345c-.058-.058-.058-.115-.115-.23l-.346-.518c-.057-.115-.115-.172-.172-.287-.633-.92-1.323-1.841-2.071-2.646l-.057-.058c-.23-.287-.518-.575-.806-.863l-.345-.345-.057-.057-.058-.058c-.057-.057-.172-.115-.23-.23-.057-.057-.172-.115-.23-.23-.173-.115-.345-.288-.46-.403a3.257 3.257 0 0 1-.46-.402c-.173-.115-.345-.288-.518-.403-.345-.288-.69-.518-1.035-.748-.173-.115-.403-.23-.576-.402a4.998 4.998 0 0 0-.575-.346c-.115-.115-.287-.172-.46-.287h-.057c-.058 0-.058-.058-.115-.058-.403-.23-.806-.46-1.208-.747-.403-.23-.863-.46-1.323-.69l-.346-.173-.345-.173-.69-.345-.69-.345c-.23-.115-.46-.23-.748-.345-.23-.115-.518-.23-.748-.345l-1.553-.69c-.23-.116-.517-.23-.748-.346a4.095 4.095 0 0 1-1.207-.287Zm-17.889 33.592c0-.058.057-.115.057-.115a48.667 48.667 0 0 0 3.279-5.005c.518-.977.978-1.955 1.323-2.876.057-.23.172-.46.23-.69 0-.057.057-.172.057-.23.058-.172.058-.287.115-.46 0-.058.058-.115.058-.173 0-.057.057-.172.057-.23 0-.057.001-.115.058-.172 0-.058 0-.115.058-.173v-.518c0-.23.057-.46.057-.69v-2.07c0-.173-.057-.346-.057-.518v-.173c-.058-.345-.115-.633-.173-.978-.058-.23-.115-.402-.173-.632 0-.115-.057-.173-.057-.288 0-.115-.058-.23-.115-.345-.058-.23-.115-.46-.23-.633v-.057a11.29 11.29 0 0 0-.46-1.266l-.518-1.208c-.23-.46-.403-.978-.69-1.495a.44.44 0 0 0-.115-.23c0-.058-.058-.058-.058-.115-.23-.46-.46-.978-.748-1.496-.057-.115-.057-.23-.057-.288 0-.057 0-.057.057-.115 0-.057.058-.115.115-.172.058-.058.115-.115.173-.115h.288c.057 0 .115.057.115.057.632.46 1.208.863 1.783 1.266.287.172.517.345.747.517l.058.058c.23.115.403.288.633.403.057 0 .057.057.115.057.057 0 .057.058.115.058.172.115.345.23.518.287.115.058.23.115.287.173.058.057.115.057.173.115.115.057.172.115.287.172a.44.44 0 0 0 .23.116h.115c.23.114.518.287.748.402.058.058.115.058.173.115.057.058.115.058.172.115l.345.173s.058 0 .115.057c.288.115.518.23.748.345.115.058.173.058.288.116.287.114.575.23.863.287h.057c.115.058.288.115.46.115.058 0 .115 0 .173.058h.172c.116.057.288.057.403.115h.173c.115 0 .172.057.287.057.115 0 .288.058.403.058h2.818c.173 0 .403-.058.576-.058.057 0 .172 0 .23-.057.23-.058.46-.058.69-.115.403-.115.805-.173 1.208-.346.115-.057.23-.057.345-.114.288-.058.518-.173.805-.288l.863-.345c.058 0 .115-.058.173-.058.057 0 .115-.057.172-.057l.345-.173c.23-.115.461-.172.748-.288.23-.114.518-.23.748-.345a19.28 19.28 0 0 0 1.553-.747c.288-.115.575-.288.863-.403h.402s.058 0 .058.058l.057.057c.058.058.058.115.115.115v.403c0 .057-.057.115-.057.115-1.15 1.553-2.071 2.933-2.819 4.256-.287.518-.575 1.036-.805 1.496-.23.518-.46.978-.633 1.438l-.517 1.38c-.518 1.726-.633 3.394-.403 5.177 0 .173.058.345.115.575.058.403.173.806.288 1.208 0 .115.057.173.057.288.23.748.46 1.553.806 2.358 0 .058.057.173.115.23.23.633.517 1.323.862 2.014.058.115.058.172.115.287 0 .058.058.115.058.173.288.632.575 1.265.92 1.956.115.23.058.402-.115.517 0 0-.057.058-.115.058l-.057.057c-.058 0-.058 0-.115.058h-.345a114.48 114.48 0 0 0-1.784-1.266c-.287-.172-.575-.402-.862-.575-.058-.058-.115-.058-.115-.115-.231-.173-.461-.288-.691-.403-.115-.057-.172-.115-.287-.172-.058-.058-.173-.115-.23-.173-.058-.057-.173-.115-.23-.172-.058 0-.116-.058-.116-.058-.23-.115-.402-.23-.632-.345a25.133 25.133 0 0 0-2.876-1.323 2.807 2.807 0 0 1-.633-.23h-.058c-.115-.058-.23-.058-.345-.115h-.345c-.057 0-.115-.058-.172-.058-.173-.057-.403-.057-.576-.115-.172-.057-.402-.057-.575-.115-.115 0-.23-.057-.402-.057h-1.553c-.173 0-.346 0-.518.057h-.23c-.115 0-.23 0-.345.058h-.173c-.115 0-.172 0-.287.057-.058 0-.173 0-.231.058-.172 0-.287.057-.46.057h-.057c-.115 0-.288.058-.403.115-.057 0-.172.058-.23.058-.115 0-.23.058-.345.115-.173.057-.288.115-.46.115a7.287 7.287 0 0 1-.575.173l-.518.172a.432.432 0 0 0-.23.115c-.173.058-.288.115-.46.173h-.058c-.23.115-.46.172-.748.287h-.057c-.23.115-.46.173-.748.288-.288.115-.518.23-.748.345-.517.23-1.035.46-1.553.748-.287.115-.517.287-.805.402h-.288c-.057 0-.057 0-.115-.057-.057-.058-.115-.115-.172-.23v-.058c-.173-.23-.173-.287-.115-.402ZM75.587 98.93H55.684c-.46 0-.862.345-.977.805l-8.859 48.893c-.402 2.185-2.53 4.026-4.774 4.026H27.557c-2.243 0-3.74-1.783-3.336-4.026l8.858-48.893c.115-.46-.23-.805-.69-.805H12.486c-2.243 0-3.738-1.783-3.336-4.027l1.84-10.353c.403-2.186 2.532-4.027 4.775-4.027h63.158c1.438 0 2.53.748 3.048 1.84.288.634.403 1.381.288 2.187L80.36 94.904c-.173.863-.518 1.611-1.093 2.244-.92 1.093-2.243 1.783-3.681 1.783Zm23.295 49.755c-.402 2.186-2.53 4.027-4.774 4.027H80.533c-2.243 0-3.739-1.784-3.336-4.027l8.8-48.72 2.762-15.358c.115-.575.345-1.093.632-1.61.863-1.438 2.531-2.416 4.2-2.416h13.632c2.243 0 3.739 1.783 3.336 4.026l-11.677 64.078Zm85.188-49.813h-42.22c-.46 0-.863.345-.978.806l-1.323 7.42c-.057.46.23.805.691.805h33.937c1.323 0 2.243 1.093 2.013 2.416l-2.243 12.482c-.23 1.323-1.553 2.416-2.876 2.416h-33.938c-.46 0-.862.345-.977.805l-1.266 6.96c-.057.46.23.805.69.805h42.221c1.322 0 2.243 1.093 2.013 2.416l-2.531 14.093c-.23 1.323-1.553 2.416-2.876 2.416h-60.742c-2.243 0-3.739-1.784-3.394-4.027l11.62-64.193c.402-2.186 2.53-4.026 4.774-4.026h60.741c1.323 0 2.244 1.093 2.014 2.416l-2.474 13.575c-.23 1.322-1.495 2.415-2.876 2.415Zm66.206 53.725h-4.659c-4.946.057-6.557-.116-7.477-1.899l-7.766-15.128a2.106 2.106 0 0 0-1.84-1.092h-16.451c-.46 0-.863.345-.978.805l-2.416 13.287c-.403 2.186-2.531 4.027-4.774 4.027H190.34c-2.243 0-3.739-1.784-3.336-4.027l11.619-64.02c.403-2.186 2.531-3.97 4.774-3.97h51.366c10.584 0 17.601 8.399 15.703 18.81l-2.933 16.393c-1.266 7.133-6.443 13.288-13 16.451-.46.23-.69.748-.518 1.151l8.456 14.725c1.093 2.013-.288 4.372-2.531 4.372-3.969 0-7.133.057-9.664.115Zm77.653-102.732-17.544 97.21c0 .115-.057.23-.057.287 0 .115-.058.173-.058.23v.058c-.057.172-.115.287-.172.46 0 .057 0 .115-.058.173v.057c0 .058-.057.115-.115.173 0 .115-.057.172-.115.23 0 .057-.057.115-.057.172-.115.173-.173.345-.288.518 0 0 0 .057-.057.057-.058.058-.058.115-.115.173-.058.058-.058.115-.115.173 0 .057-.058.115-.116.115-.057.115-.115.172-.172.23-.115.115-.173.23-.288.345l-.345.345c-.115.115-.287.23-.402.345-.058 0-.058.058-.115.058l-.116.115c-.115.115-.23.172-.345.287-.115.058-.23.173-.345.23-.575.403-1.265.691-1.955.863-.231.058-.403.115-.633.173-.403.057-.863.115-1.266.115h-20.534c-3.394 0-5.638-2.704-5.062-6.04l12.884-71.038c.115-.46.058-.92 0-1.323 0-.057 0-.115-.057-.172v-.058c0-.057-.058-.115-.058-.173l-.172-.345v-.057c-.058-.058-.058-.115-.115-.173l-.173-.172-.057-.058c-.058-.057-.115-.115-.115-.172l-.058-.058c-.115-.115-.173-.172-.288-.23-.057-.058-.115-.058-.172-.115-.058 0-.058-.057-.115-.057-.058-.058-.115-.058-.173-.115-.057 0-.057-.058-.115-.058h-.057c-.115-.058-.173-.058-.288-.115h-.115c-.057 0-.115 0-.173-.058h-.115c-.115 0-.172 0-.287-.057h-9.491c-.115 0-.23 0-.345-.058h-.288c-.057 0-.115 0-.172-.057-.058 0-.173-.058-.23-.058-.058 0-.115-.057-.231-.057-.057 0-.115-.058-.115-.058-.057 0-.115 0-.115-.057-.115-.058-.23-.115-.287-.115-.115-.058-.23-.115-.403-.23-.518-.346-.978-.748-1.323-1.266a.44.44 0 0 1-.115-.23c0-.057-.057-.057-.057-.115a.432.432 0 0 1-.115-.23c-.115-.23-.231-.46-.288-.69 0-.058-.058-.173-.058-.23-.057-.115-.057-.288-.115-.46v-.058c0-.115-.057-.23-.057-.403-.058-.517 0-1.035.057-1.553l2.934-16.45c0-.173.057-.288.115-.46v-.116c0-.057 0-.057.058-.115l.172-.518c0-.057.058-.115.058-.172 0-.058.057-.058.057-.115.058-.115.115-.23.115-.288l.173-.345c0-.057.057-.115.115-.172 0 0 0-.058.057-.058.058-.115.115-.172.173-.288.057-.057.115-.172.172-.23.115-.172.23-.345.403-.517.058-.058.115-.173.23-.23l.23-.23c.115-.116.23-.23.345-.288l.173-.115c.057-.058.172-.115.23-.23.115-.058.173-.115.288-.173.115-.057.172-.115.287-.172.115-.058.173-.115.288-.173 0 0 .057 0 .057-.057.058 0 .115-.058.173-.115.057-.058.115-.058.172-.116.058 0 .115-.057.173-.057.173-.058.288-.115.46-.23h.115c.058 0 .058 0 .115-.058.058 0 .115-.057.173-.057.115-.058.23-.058.345-.115.115 0 .23-.058.288-.058h.115c.057 0 .115 0 .172-.057h.058c.057 0 .115-.058.23-.058.172 0 .345-.057.46-.057h39.171c.576 0 1.093.057 1.611.23.173.057.345.115.46.172.115.058.288.115.403.173h.057c.288.115.518.288.748.46l.173.173c.057 0 .057.057.115.057l.115.115.057.058a.795.795 0 0 1 .173.23l.057.057.058.058c.057.057.115.115.115.172l.057.058.058.057.057.058c.116.115.173.288.231.403.057.115.115.287.23.46.115.287.23.575.287.863.058.172.058.345.058.517 0 .173.057.403.057.576-.057.172-.057.575-.115.92Z" fill="#fff"/><path d="M81.971 82.422c-.518-1.092-1.668-1.84-3.049-1.84H15.765c-2.244 0-4.372 1.783-4.774 4.026L9.15 94.962c-.403 2.186 1.093 4.026 3.336 4.026h19.902c.46 0 .748.346.69.806l-8.858 48.892c-.402 2.186 1.093 4.027 3.337 4.027H41.13c2.244 0 4.372-1.784 4.775-4.027l8.858-48.892c.057-.46.517-.806.978-.806h19.902c1.38 0 2.76-.69 3.681-1.725.575-.633.978-1.438 1.093-2.244l1.898-10.353c.115-.863 0-1.61-.345-2.244Z" fill="url(#a)"/><path d="M107.108 80.582H93.475c-1.668 0-3.278.978-4.198 2.416a4.963 4.963 0 0 0-.633 1.61l-2.761 15.358-8.8 48.72c-.403 2.186 1.092 4.027 3.335 4.027h13.575c2.244 0 4.372-1.784 4.774-4.027l11.677-64.078c.403-2.243-1.093-4.026-3.336-4.026Z" fill="url(#b)"/><path d="M187.406 80.467h-60.684c-2.243 0-4.372 1.783-4.774 4.026l-11.619 64.193c-.403 2.186 1.092 4.026 3.393 4.026h60.742c1.323 0 2.646-1.092 2.876-2.415l2.531-14.093c.23-1.323-.633-2.416-2.013-2.416h-42.22c-.461 0-.748-.345-.691-.805l1.266-6.96c.057-.46.518-.805.978-.805h33.937c1.323 0 2.646-1.093 2.876-2.416l2.243-12.482c.23-1.323-.633-2.416-2.013-2.416h-33.937c-.46 0-.748-.345-.69-.805l1.323-7.42c.057-.46.517-.806.977-.806h42.221c1.322 0 2.645-1.093 2.876-2.416l2.415-13.575c.23-1.323-.632-2.415-2.013-2.415Z" fill="url(#c)"/><path d="M254.82 80.524h-51.365c-2.244 0-4.372 1.783-4.775 3.97l-11.561 64.135c-.403 2.185 1.093 4.026 3.336 4.026h13.575c2.243 0 4.371-1.783 4.774-4.026l2.416-13.288c.057-.46.518-.805.978-.805h16.451c.805 0 1.495.403 1.84 1.093l7.766 15.128c.92 1.783 2.53 2.013 7.477 1.898h4.659c2.531-.058 5.637-.115 9.664-.115 2.301 0 3.681-2.416 2.531-4.372l-8.456-14.725c-.23-.403 0-.92.518-1.15 6.557-3.164 11.734-9.319 13-16.451l2.933-16.394c1.841-10.526-5.234-18.924-15.761-18.924Zm-6.614 21.628-1.956 10.814c-.345 1.955-2.243 3.566-4.257 3.566h-26.574c-.46 0-.748-.345-.69-.805l2.933-16.279c.058-.46.518-.805.978-.805h26.575c2.013-.057 3.336 1.496 2.991 3.509Z" fill="url(#d)"/><path d="M269.603 44.229h-4.083v-2.186c.517.23 1.092.46 1.668.633.575.23 1.15.402 1.783.632.057 0 .115.058.115.058.057.057.115.057.115.115.057 0 .057.057.115.115.057 0 .057.058.057.115 0 0 0 .058.058.058 0 0 0 .057.057.057 0 .058.058.115.058.173v.115c.057 0 .057.057.057.115Zm15.933-.403v.403h-3.681c.115-.058.23-.058.345-.115.115 0 .23-.058.288-.058h.115c.057 0 .115 0 .172-.057h.058c.057 0 .115-.058.23-.058.172 0 .345-.058.46-.058h2.013v-.057Z" fill="#fff"/><path d="M327.987 48.197c0-.172-.058-.345-.058-.517-.057-.288-.172-.575-.287-.863a1.738 1.738 0 0 0-.23-.46c-.058-.173-.173-.288-.23-.403 0 0 0-.057-.058-.057l-.058-.058s0-.057-.057-.057c-.058-.058-.115-.115-.115-.173 0 0 0-.058-.058-.058l-.057-.057a.793.793 0 0 1-.173-.23l-.057-.058-.115-.115s-.058-.057-.115-.057l-.173-.173c-.23-.172-.46-.345-.748-.46h-.057c-.115-.057-.23-.115-.403-.172-.172-.058-.345-.115-.46-.173-.518-.115-1.035-.23-1.611-.23h-38.768c-.403 0-.863.057-1.266.115h-.057c-.058 0-.115 0-.173.057h-.115c-.115 0-.23.058-.288.058-.115 0-.23.058-.345.115-.057 0-.115.058-.172.058 0 0-.058 0-.115.057h-.115a1.705 1.705 0 0 0-.46.23c-.058 0-.116.058-.173.058-.058.057-.115.057-.173.115-.057.057-.115.057-.172.115 0 0-.058 0-.058.057l-.517.345c-.173.115-.346.23-.518.403-.058.058-.173.115-.23.23l-.23.23-.46.46c-.115.173-.288.345-.403.518l-.345.518s0 .057-.058.057c0 .058-.057.115-.115.173l-.172.345c-.058.115-.115.23-.115.288 0 .057-.058.057-.058.115 0 .057-.057.115-.057.172l-.173.518c0 .057 0 .057-.057.115v.115c-.058.115-.058.288-.116.46l-2.933 16.451a4.771 4.771 0 0 0-.058 1.553c0 .115 0 .288.058.403v.057c0 .173.057.288.115.46 0 .058.058.173.058.23.057.23.172.46.287.69.058.058.058.173.115.23 0 .058.058.058.058.116a.44.44 0 0 1 .115.23c.345.518.805.978 1.323 1.265.115.058.23.173.402.23.115.058.23.116.288.116.057 0 .057.057.115.057.057 0 .115.058.115.058.058 0 .115.057.23.057.058 0 .115.058.23.058.058 0 .115.057.173.057h.287c.115 0 .23.058.345.058h9.491c.115 0 .173 0 .288.057h.115c.058 0 .115 0 .173.058h.115c.115 0 .172.057.287.115h.058c.057 0 .057 0 .115.057.057 0 .115.058.172.115.058 0 .058.058.115.058.058.057.115.057.173.115.115.057.23.172.288.23l.057.057c.058.058.115.115.115.173h.058l.172.172c.058.058.058.116.115.173v.058l.173.345c.057.057.057.115.057.172v.058c0 .057.058.115.058.172.115.403.115.863 0 1.323l-12.827 71.096c-.575 3.336 1.668 6.039 5.062 6.039h20.534c.403 0 .863-.057 1.266-.115.23-.057.403-.115.633-.172.69-.173 1.323-.518 1.955-.863.115-.057.23-.115.345-.23.115-.058.23-.173.346-.288.057 0 .057-.057.115-.115.057 0 .057-.057.115-.057.115-.115.287-.23.402-.345l.345-.345c.115-.115.23-.231.288-.346.058-.057.115-.172.173-.23l.115-.115c.057-.057.057-.115.115-.172.057-.058.057-.115.115-.173 0 0 0-.057.057-.057.115-.173.173-.345.288-.518.057-.058.057-.115.057-.173.058-.057.058-.172.115-.23.058-.057.058-.115.115-.172v-.058c.058-.057.058-.115.058-.172.057-.173.115-.288.172-.46v-.058c0-.058.058-.173.058-.23 0-.115.058-.23.058-.288l17.543-97.21c.058-.345.115-.747.115-1.092-.057-.058-.057-.23-.057-.46Z" fill="url(#e)"/><path d="m188.211 73.68 4.487-10.067-2.243-11.101.287-4.2 6.96 1.899 10.066 2.07 4.602-2.415-2.128-5.062-8.226-3.566-1.725-5.58 8.915-2.703 12.31-4.89s6.327-3.911 6.73-4.486l2.531-3.624L239.75 4.77s3.969 3.508 4.199 3.91c.172.404 10.411 25.713 10.411 25.713l12.482 5.58 4.889 4.083-6.154 7.018-14.553 11.906-4.314 10.009-13.575 3.796-23.929 1.726-17.026-2.186-3.969-2.646Z" fill="#fff"/><path d="M269.603 44.229c0 .46-.287.863-.805.977-21.685 2.877-27.437 7.536-34.857 28.07-.058.116-.058.173-.115.23l-.058.058c-.058.058-.173.115-.23.173-.058 0-.115.057-.173.057h-.517c-.058 0-.115-.057-.173-.057-.057 0-.115-.058-.115-.115l-.172-.173s-.058-.057-.058-.115c-.058-.115-.115-.23-.115-.345v-.173c-.058-.46-.115-.977-.173-1.438-.057-.517-.172-1.035-.23-1.495a14.279 14.279 0 0 0-.287-1.668c0-.115-.058-.23-.058-.288-.057-.23-.057-.403-.115-.575l-.172-.863c-.173-.92-.346-1.84-.518-2.703-.115-.403-.173-.806-.288-1.208 0-.115-.057-.23-.115-.403 0-.115-.057-.23-.057-.345 0-.057-.058-.115-.058-.23-.057-.173-.115-.403-.172-.575-.058-.115-.058-.288-.115-.403-.058-.23-.115-.46-.173-.633 0-.057 0-.057-.057-.115-.058-.172-.116-.287-.116-.46-.057-.172-.115-.288-.115-.46 0-.115-.057-.173-.057-.23-.058-.23-.173-.46-.23-.69-.115-.346-.23-.633-.345-.978-.058-.115-.058-.23-.115-.345-.058-.23-.173-.403-.23-.633-.115-.23-.173-.403-.288-.633 0-.057-.058-.115-.058-.172-.287-.633-.632-1.266-.977-1.899-.058-.115-.115-.172-.115-.23l-.173-.345c-.058-.057-.058-.115-.115-.23l-.345-.518c-.058-.114-.115-.172-.173-.287-.632-.92-1.323-1.84-2.07-2.646l-.058-.058c-.115-.115-.23-.287-.345-.402-.115-.173-.288-.288-.46-.46l-.345-.346-.058-.057-.057-.058c-.058-.057-.173-.115-.231-.23-.057-.057-.172-.115-.23-.23a3.31 3.31 0 0 1-.46-.402 3.316 3.316 0 0 1-.46-.403c-.172-.115-.345-.288-.518-.403-.345-.287-.69-.517-1.035-.747-.173-.116-.403-.23-.575-.403-.173-.115-.345-.23-.575-.345-.115-.115-.288-.173-.461-.288h-.057c-.058 0-.058-.057-.115-.057-.403-.23-.805-.46-1.208-.748-.403-.23-.863-.46-1.323-.69l-.345-.173-.345-.172-.691-.346-.69-.345c-.23-.115-.46-.23-.748-.345-.23-.115-.517-.23-.747-.345l-1.553-.69c-.23-.115-.518-.23-.748-.345-.288-.115-.575-.23-.92-.345l-1.726-.69a.432.432 0 0 1-.23-.116.432.432 0 0 1-.23-.115c-.173-.057-.288-.115-.46-.172-.633-.23-1.208-.46-1.899-.69h-.057c-.058 0-.058 0-.115-.058 0 0-.058-.058-.115-.058-.058 0-.058-.057-.058-.057-.057-.058-.057-.115-.115-.115 0-.058-.057-.115-.057-.173v-.23c-.058-.23.057-.517.172-.748.058-.057.058-.115.115-.115 0 0 .058-.057.115-.057.058 0 .058-.058.115-.058.058 0 .058-.057.115-.057.058 0 .116-.058.173-.058 21.685-2.876 27.437-7.535 34.857-28.07 0-.057.058-.115.058-.172 0 0 0-.058.058-.058.057-.057.115-.115.115-.172.057-.058.172-.115.23-.173.057 0 .115 0 .115-.057h.402c.058 0 .115 0 .173.057.057 0 .115.058.172.058.058 0 .116.057.116.115.057.057.115.057.115.115 0 0 .057.057.057.115 0 0 .058.057.058.115.057.115.057.172.115.287.115.633.172 1.266.23 1.841v.115c.115.575.172 1.15.23 1.668.115.575.172 1.15.287 1.726 0 .115.058.23.058.345.057.172.057.345.115.518.23 1.092.403 2.128.633 3.163l.517 2.07c.058.288.173.519.23.806.116.46.231.92.403 1.323.058.23.115.46.23.633.058.23.115.403.23.633.058.23.173.517.288.747.115.346.287.748.46 1.093.345.806.633 1.553 1.035 2.244.173.345.346.69.576 1.035.115.172.172.345.287.518.115.172.23.345.288.517 0 0 0 .058.057.058.058.115.115.23.23.288 0 .057.058.057.115.114.116.173.231.346.346.46 0 .058.057.058.057.116 0 .057.058.115.115.115.058.057.115.172.173.23.115.172.23.287.345.46.115.173.23.345.402.46a.776.776 0 0 1 .173.23c.173.23.345.403.575.633.115.115.23.288.403.403 0 0 0 .057.057.057l.173.173c.173.23.403.402.633.575.23.172.402.403.632.575l.173.173c.058.057.115.115.173.115.057.057.115.115.172.115.058.057.173.115.23.172.69.575 1.438 1.093 2.243 1.61.058.058.173.116.231.173h.057c.23.115.403.288.633.403.345.23.69.403 1.035.633.23.172.518.287.805.46.173.115.403.23.576.288.287.172.517.287.805.402.173.115.345.173.46.23l.69.346c.058.057.115.057.23.114.403.173.748.346 1.208.518.115.058.23.115.288.115.575.23 1.093.518 1.726.748.575.23 1.208.46 1.783.748.287.115.517.23.805.345.518.23 1.093.46 1.668.633.575.23 1.151.46 1.783.632.058 0 .115.058.115.058.058.057.115.057.115.115.058 0 .058.057.115.115l.058.057s0 .058.057.058c0 0 0 .058.058.058 0 .057.057.114.057.172v.115c-.46.173-.46.23-.46.288Z" fill="url(#f)"/><path d="M216.914 52.282v.172c0 .058-.057.115-.057.115-1.15 1.553-2.071 2.934-2.819 4.257-.287.517-.575 1.035-.805 1.495-.23.518-.46.978-.633 1.438l-.517 1.38c-.518 1.726-.633 3.395-.403 5.178 0 .172.058.345.115.575.058.403.173.805.288 1.208 0 .115.057.172.057.287.23.748.46 1.553.806 2.359 0 .057.057.172.115.23.23.633.517 1.323.862 2.013.058.115.058.173.115.288 0 .057.058.115.058.172.288.633.575 1.266.92 1.956.115.23.058.403-.115.517 0 0-.057.058-.115.058 0 0-.057 0-.057.058-.058 0-.058 0-.115.057h-.346c-.632-.46-1.207-.863-1.783-1.265-.287-.173-.575-.403-.862-.576-.058-.057-.116-.057-.116-.115a4.282 4.282 0 0 0-.69-.402c-.115-.058-.172-.115-.287-.173-.058-.057-.173-.115-.23-.172-.058-.058-.173-.115-.231-.173-.057 0-.115-.057-.115-.057-.23-.116-.402-.23-.632-.346a25.481 25.481 0 0 0-2.876-1.323 2.812 2.812 0 0 1-.633-.23h-.058c-.115-.057-.23-.057-.345-.115h-.345c-.057 0-.115-.057-.172-.057-.173-.058-.403-.058-.576-.115-.172-.058-.402-.058-.575-.115-.115 0-.23-.058-.402-.058h-1.553c-.173 0-.346 0-.518.058h-.23c-.115 0-.23 0-.345.057h-.173a.52.52 0 0 0-.288.058c-.057 0-.172 0-.23.057-.172 0-.287.058-.46.058h-.057a1.06 1.06 0 0 0-.403.115c-.057 0-.173.057-.23.057-.115 0-.23.058-.345.115-.173.058-.288.115-.46.115-.173.058-.345.116-.576.173l-.517.173a.432.432 0 0 0-.23.115c-.173.057-.288.115-.46.172h-.058c-.23.115-.46.173-.748.288h-.057c-.23.115-.46.172-.748.287-.288.115-.518.23-.748.346-.517.23-1.035.46-1.553.747-.287.115-.518.288-.805.403h-.288c-.057 0-.057 0-.115-.058-.057-.057-.115-.115-.172-.23v-.287c0-.058.057-.115.057-.115a48.678 48.678 0 0 0 3.279-5.005c.575-.977.978-1.955 1.323-2.876.057-.172.115-.402.172-.575 0-.057 0-.057.058-.115 0-.057.057-.173.057-.23 0-.058.058-.115.058-.172 0-.058.057-.173.057-.23 0-.058.058-.116.058-.173 0-.058.058-.173.058-.23 0-.058-.001-.115.057-.173 0-.057 0-.115.058-.172v-.518c0-.23.057-.46.057-.69v-2.359c0-.057 0-.115-.057-.172v-.173c-.058-.345-.115-.633-.173-.978-.058-.23-.115-.402-.173-.632 0-.115-.057-.173-.057-.288 0-.115-.058-.23-.115-.345v-.115l-.173-.518v-.057a11.096 11.096 0 0 0-.46-1.266c-.172-.402-.287-.805-.518-1.208-.23-.46-.402-.978-.69-1.495a.432.432 0 0 0-.115-.23c0-.058-.057-.058-.057-.115-.23-.46-.461-.978-.748-1.496-.058-.115-.058-.23-.058-.345v-.115c0-.058.058-.115.115-.173.058-.057.115-.057.173-.115h.288c.057 0 .115.058.115.058.632.46 1.208.863 1.783 1.265.287.173.517.345.748.518l.057.057c.23.115.403.288.633.403.057 0 .057.058.115.058.057 0 .057.057.115.057.172.115.345.23.518.288.115.057.23.115.287.172.058.058.115.058.173.115.115.058.172.115.287.173a.44.44 0 0 0 .23.115l.058.057c.115.058.172.116.287.173.173.115.288.173.461.23.057.058.115.058.172.115.058.058.115.058.173.115l.345.173s.057 0 .115.057c.288.115.518.23.748.345.115.058.172.058.287.115.288.116.576.23.863.288h.058c.115.058.287.058.46.115.057 0 .115 0 .172.058.058 0 .058 0 .115.057.115.058.288.058.403.115.173.058.345.058.518.115.115 0 .287.058.402.058h2.646c.23 0 .46-.058.691-.115.057 0 .172 0 .23-.058.23-.057.46-.057.69-.115.403-.115.805-.172 1.208-.345.115-.057.23-.057.345-.115.288-.057.518-.173.805-.288.345-.115.69-.23 1.036-.402.057 0 .115-.058.172-.058.23-.057.403-.172.633-.23.172-.057.288-.115.46-.172.23-.115.518-.23.748-.346a19.28 19.28 0 0 0 1.553-.747c.288-.115.575-.288.863-.403 0 0 .057 0 .057-.057h.345s.058 0 .058.057l.057.058c.058.057.058.115.115.115v.115-.23Z" fill="url(#g)"/><defs><linearGradient id="a" x1="45.693" y1="80.595" x2="45.693" y2="152.662" gradientUnits="userSpaceOnUse"><stop stop-color="#203B9B"/><stop offset="1" stop-color="#070F32"/></linearGradient><linearGradient id="b" x1="93.809" y1="80.595" x2="93.809" y2="152.662" gradientUnits="userSpaceOnUse"><stop stop-color="#203B9B"/><stop offset="1" stop-color="#070F32"/></linearGradient><linearGradient id="c" x1="149.853" y1="80.462" x2="149.853" y2="152.661" gradientUnits="userSpaceOnUse"><stop stop-color="#203B9B"/><stop offset="1" stop-color="#070F32"/></linearGradient><linearGradient id="d" x1="228.894" y1="80.533" x2="228.894" y2="152.661" gradientUnits="userSpaceOnUse"><stop stop-color="#203B9B"/><stop offset="1" stop-color="#070F32"/></linearGradient><linearGradient id="e" x1="300.909" y1="43.821" x2="300.909" y2="153.102" gradientUnits="userSpaceOnUse"><stop stop-color="#203B9B"/><stop offset="1" stop-color="#070F32"/></linearGradient><linearGradient id="f" x1="236.552" y1="7.711" x2="236.552" y2="73.844" gradientUnits="userSpaceOnUse"><stop stop-color="#203B9B"/><stop offset="1" stop-color="#070F32"/></linearGradient><linearGradient id="g" x1="203.816" y1="49.904" x2="203.816" y2="76.1" gradientUnits="userSpaceOnUse"><stop stop-color="#203B9B"/><stop offset="1" stop-color="#070F32"/></linearGradient></defs></svg>